<?xml version="1.0" encoding="utf-8"?>
<!-- Generator: Adobe Illustrator 24.0.1, SVG Export Plug-In . SVG Version: 6.00 Build 0)  -->
<svg version="1.1" id="Layer_1" xmlns="http://www.w3.org/2000/svg" xmlns:xlink="http://www.w3.org/1999/xlink" x="0px" y="0px"
	 viewBox="0 0 37.9 42" style="enable-background:new 0 0 37.9 42;" xml:space="preserve">
<style type="text/css">
	.st0{fill:#FFFFFF;}
</style>
<path class="st0" d="M16.8,39.9L16.8,39.9l-2.3-4.8h-1.3V42h1.1v-4.9h0l2.4,4.9h1.2v-6.8h-1.1L16.8,39.9L16.8,39.9z M11.3,30.4
	L10.3,34h0.6l0.2-0.8h1.1l0.2,0.8h0.7l-1-3.7C12,30.4,11.3,30.4,11.3,30.4z M11.3,32.6l0.4-1.4h0l0.4,1.4H11.3z M7.1,32.2
	c0-1.7-1-1.9-1.4-1.9c-0.4,0-1.4,0.2-1.4,1.9c0,1.7,1,1.9,1.4,1.9c0.2,0,0.5,0,0.8-0.2l0.3,0.4l0.3-0.4l-0.3-0.4
	C6.9,33.2,7.1,32.8,7.1,32.2L7.1,32.2z M6.3,33L6,32.6L5.7,33L6,33.4c-0.1,0.1-0.2,0.1-0.3,0.1c-0.3,0-0.8-0.3-0.8-1.3
	c0-1,0.5-1.3,0.8-1.3c0.3,0,0.8,0.3,0.8,1.3C6.4,32.5,6.4,32.8,6.3,33L6.3,33L6.3,33z M13.5,30.4V34h2.1v-0.7h-1.5v-3H13.5
	L13.5,30.4z M20,34h0.6v-3.7H20v1.4h-1.2v-1.4h-0.6V34h0.6v-1.6H20L20,34L20,34z M8.5,39h2.8v-1.2H8.5v-1.4h3.1v-1.2H7.3V42h4.4
	v-1.2H8.5L8.5,39L8.5,39z M3.8,31v-0.6H1.6V34h2.2v-0.6H2.2v-0.9h1.4v-0.6H2.2V31H3.8z M3,35.2H1.8V42h4.1v-1.2H3V35.2L3,35.2z
	 M7.5,30.4v2.4c0,0.4,0.1,0.7,0.2,0.9C8,34,8.4,34.1,8.7,34.1c0.7,0,1.2-0.4,1.2-1.4v-2.4H9.3v2.4c0,0.4-0.2,0.7-0.6,0.7
	c-0.3,0-0.5-0.2-0.5-0.7v-2.4L7.5,30.4L7.5,30.4z M30.1,34h0.6v-3.7h-0.6V34L30.1,34z M36.6,40.5c0-1.3-0.3-1.5-0.7-1.7
	c0.6-0.2,0.9-0.9,0.9-1.6c0-0.6-0.3-1.9-1.8-1.9h-3V42h1.2v-2.7h1.3c0.9,0,1,0.4,1,1.3c0,0.7,0,1.1,0.1,1.4h1.4v-0.2
	C36.6,41.7,36.6,41.5,36.6,40.5L36.6,40.5z M34.6,38.2h-1.4v-1.8h1.5c0.7,0,0.9,0.5,0.9,0.9C35.6,37.9,35.3,38.2,34.6,38.2
	L34.6,38.2z M28.5,33.5c-0.5,0-0.6-0.4-0.6-0.6h-0.6c0,0.5,0.2,1.2,1.3,1.2c0.3,0,1.2-0.1,1.2-1.2c0-0.7-0.4-0.9-0.8-1l-0.7-0.2
	c-0.1,0-0.3-0.1-0.3-0.4c0-0.3,0.3-0.4,0.5-0.4c0.5,0,0.6,0.4,0.6,0.5h0.6c0-0.4-0.2-1.2-1.1-1.2c-1,0-1.1,0.7-1.1,1.1
	c0,0.8,0.5,0.9,0.9,1.1l0.3,0.1c0.3,0.1,0.5,0.2,0.5,0.5C29.1,33.4,28.7,33.5,28.5,33.5L28.5,33.5z M33.6,34v-3.7h-0.6v2.5h0
	l-1.2-2.5h-0.6V34h0.6v-2.6h0L33,34H33.6L33.6,34z M35.6,30.9c0.4,0,0.6,0.5,0.6,0.6h0.6c0-0.5-0.4-1.2-1.3-1.2
	c-1,0-1.4,0.9-1.4,1.9c0,1.3,0.6,1.9,1.4,1.9c0.5,0,0.8-0.3,0.9-0.6l0.1,0.5h0.4v-2h-1.2v0.6h0.7c-0.1,0.7-0.6,0.8-0.7,0.8
	c-0.4,0-0.9-0.3-0.9-1.3C34.7,31.3,35.1,30.9,35.6,30.9L35.6,30.9z M26.8,32.7v-2.4h-0.6v2.4c0,0.4-0.2,0.7-0.6,0.7
	c-0.3,0-0.5-0.2-0.5-0.7v-2.4h-0.6v2.4c0,0.4,0.1,0.7,0.2,0.9c0.3,0.4,0.7,0.4,0.9,0.4C26.3,34.1,26.8,33.7,26.8,32.7L26.8,32.7z
	 M27.2,39h2.8v-1.2h-2.8v-1.4h3.1v-1.2h-4.3V42h4.4v-1.2h-3.2V39L27.2,39z M23.9,32.2c0-1.7-1-1.9-1.4-1.9c-0.4,0-1.4,0.2-1.4,1.9
	c0,1.7,1,1.9,1.4,1.9C22.9,34.1,23.9,33.9,23.9,32.2z M21.7,32.2c0-1,0.5-1.3,0.8-1.3s0.8,0.3,0.8,1.3c0,1-0.5,1.3-0.8,1.3
	C22.2,33.5,21.7,33.2,21.7,32.2L21.7,32.2z M22.2,35.2h-2.6V42h2.5c1.9,0,2.4-2.1,2.4-3.6C24.6,37.1,24.2,35.2,22.2,35.2L22.2,35.2z
	 M22,40.8h-1.2v-4.5H22c0.5,0,1.3,0.2,1.3,2.2C23.3,39.7,23,40.8,22,40.8L22,40.8z M18.9,0L0,9.7v3.9l2.1,0v14.1h33.5l0-14.1h2.3
	V9.7L18.9,0L18.9,0z M31.9,24.1H5.8V11.5l13.1-6.8l13,6.8L31.9,24.1L31.9,24.1z M12.7,14.8H25v-3.4H12.7V14.8z M12.7,20.9H25v-3.4
	H12.7V20.9z"/>
</svg>
