<?xml version="1.0" encoding="utf-8"?>
<!-- Generator: Adobe Illustrator 24.0.1, SVG Export Plug-In . SVG Version: 6.00 Build 0)  -->
<svg version="1.1" id="Layer_1" xmlns="http://www.w3.org/2000/svg" xmlns:xlink="http://www.w3.org/1999/xlink" x="0px" y="0px"
	 viewBox="0 0 78.9 44.2" style="enable-background:new 0 0 78.9 44.2;" xml:space="preserve">
<style type="text/css">
	.st0{fill:#FFFFFF;}
	.st1{clip-path:url(#SVGID_2_);fill:#FFFFFF;}
	.st2{clip-path:url(#SVGID_4_);fill:#FFFFFF;}
</style>
<polygon class="st0" points="70.3,24.2 70.3,25.2 70.1,25.2 70.1,24.5 70,24.5 70.1,24.2 "/>
<g>
	<path class="st0" d="M70.8,24.5c0,0.2,0.2,0.3,0.4,0.3c0.1,0,0.2,0,0.2-0.1C71.3,25.1,71,25,70.9,25l-0.1,0.2
		c0.1,0.1,0.8,0.2,0.8-0.5c0-0.1-0.1-0.5-0.4-0.5v0.2c0.1,0,0.2,0.1,0.2,0.2s-0.1,0.2-0.2,0.2S71,24.7,71,24.6s0.1-0.2,0.2-0.2v-0.2
		C71,24.2,70.8,24.3,70.8,24.5"/>
	<path class="st0" d="M72.2,25.2c-0.2,0-0.3-0.1-0.4-0.1l0.1-0.1c0.1,0,0.2,0.1,0.2,0.1c0.1,0,0.2,0,0.2-0.1s0-0.1-0.2-0.1v-0.2
		c0.2,0,0.3-0.1,0.3-0.1c0-0.1-0.1-0.1-0.2-0.1s-0.1,0-0.2,0.1l-0.1-0.1c0.1-0.1,0.2-0.2,0.3-0.2c0.2,0,0.4,0.1,0.4,0.3
		c0,0.1,0,0.2-0.1,0.2c0.1,0,0.1,0.1,0.1,0.2C72.6,25.1,72.4,25.2,72.2,25.2"/>
	<path class="st0" d="M73.2,25.2c-0.2,0-0.3-0.1-0.4-0.1l0.1-0.1c0.1,0,0.2,0.1,0.2,0.1c0.1,0,0.2,0,0.2-0.1s0-0.1-0.2-0.1v-0.2
		c0.2,0,0.3-0.1,0.3-0.1c0-0.1-0.1-0.1-0.2-0.1s-0.1,0-0.2,0.1l-0.1-0.1c0.1-0.1,0.2-0.2,0.3-0.2c0.2,0,0.4,0.1,0.4,0.3
		c0,0.1,0,0.2-0.1,0.2c0.1,0,0.1,0.1,0.1,0.2C73.6,25.1,73.4,25.2,73.2,25.2"/>
	<path class="st0" d="M70.2,31.2v-0.5h-0.1v0.6h0.3v-0.2h0.2v0.2H71v-0.6h0.2c0.2,0,0.2,0.1,0.3,0.1c0.1,0,0.1-0.1,0.2-0.1
		s0.1,0.1,0.2,0.1s0.1-0.1,0.2-0.1s0.1,0.1,0.2,0.1s0.2-0.1,0.3-0.1c0.1,0,0.2,0,0.2,0.2s0.2,0.4,0.4,0.4s0.4-0.2,0.4-0.4v-0.5
		c0-0.2-0.2-0.4-0.4-0.4v0.1c0.1,0,0.2,0.1,0.2,0.2c0,0.2-0.1,0.3-0.1,0.3s0.1,0.1,0.1,0.3c0,0.1-0.1,0.2-0.2,0.2S73,31,73,30.9
		c0-0.2,0.1-0.3,0.1-0.3S73,30.5,73,30.3c0-0.1,0.1-0.2,0.2-0.2V30c-0.2,0-0.4,0.2-0.4,0.4c0,0.1-0.1,0.2-0.2,0.2
		c-0.2,0-0.2-0.1-0.3-0.1c-0.1,0-0.1,0.1-0.2,0.1s-0.1-0.1-0.2-0.1s-0.1,0.1-0.2,0.1s-0.1-0.1-0.2-0.1s-0.1,0.1-0.3,0.1H70v0.2h0.2
		h0.1H71v0.5h-0.1V31h-0.4v0.2H70.2z"/>
	<path class="st0" d="M76.6,28.2c0,2.6-2.1,4.7-4.7,4.7v-0.2c2.5,0,4.5-2,4.5-4.5s-2-4.5-4.5-4.5s-4.5,2-4.5,4.5s2,4.5,4.5,4.5V33
		c-2.6,0-4.7-2.1-4.7-4.7s2.1-4.7,4.7-4.7C74.5,23.5,76.6,25.6,76.6,28.2"/>
</g>
<g>
	<g>
		<defs>
			<rect id="SVGID_1_" y="12.3" width="78.9" height="31.9"/>
		</defs>
		<clipPath id="SVGID_2_">
			<use xlink:href="#SVGID_1_"  style="overflow:visible;"/>
		</clipPath>
		<path class="st1" d="M76.8,28.2c0-2.7-2.2-4.9-4.9-4.9c-2.7,0-4.9,2.2-4.9,4.9s2.2,4.9,4.9,4.9v0.1c-2.8,0-5-2.2-5-5s2.2-5,5-5
			S76.9,25.4,76.8,28.2c0.1,2.8-2.1,5-4.9,5v-0.1C74.6,33.1,76.8,30.9,76.8,28.2"/>
	</g>
	<g>
		<defs>
			<rect id="SVGID_3_" y="12.3" width="78.9" height="31.9"/>
		</defs>
		<clipPath id="SVGID_4_">
			<use xlink:href="#SVGID_3_"  style="overflow:visible;"/>
		</clipPath>
		<path class="st2" d="M78.7,28.2c0,3.7-3,6.8-6.8,6.8v0.2c3.9,0,7-3.1,7-7s-3.1-7-7-7s-7,3.1-7,7s3.1,7,7,7V35
			c-3.7,0-6.8-3-6.8-6.8c0-3.7,3-6.8,6.8-6.8C75.7,21.5,78.7,24.5,78.7,28.2"/>
	</g>
</g>
<g>
	<path class="st0" d="M78.5,28.2c0-3.7-3-6.6-6.6-6.6c-3.7,0-6.6,3-6.6,6.6c0,3.7,3,6.6,6.6,6.6v-0.1c-3.6,0-6.5-2.9-6.5-6.5
		s2.9-6.5,6.5-6.5S78.4,24.6,78.5,28.2c-0.1,3.6-3,6.5-6.6,6.5v0.1C75.6,34.9,78.5,31.9,78.5,28.2"/>
	<path class="st0" d="M70.7,22.1l0.5,0.9c-0.1,0-0.2,0-0.2,0l-0.1-0.2L70.6,23v-0.2h0.2l-0.1-0.2v0.3v0.2v0.2c-0.1,0-0.2,0-0.2,0.1
		l0.1-1.1L70.7,22.1z"/>
	<path class="st0" d="M76.3,23.9L76,24.2v0.1l0.2,0.3l-0.1,0.1l-0.3-0.3l-0.2,0.1l0.3,0.4c0,0,0.1,0.1,0.2,0l0.3-0.3v-0.1l-0.2-0.3
		l0.1-0.1l0.3,0.3l0.2-0.1L76.3,23.9C76.4,23.9,76.3,23.9,76.3,23.9"/>
	<path class="st0" d="M67.2,25.9c0,0.1-0.1,0.1-0.1,0.2l-0.9-0.4l0.3-0.6l0.2,0.1l-0.2,0.4l0.2,0.1l0.2-0.3l0.2,0.1l-0.2,0.3
		L67.2,25.9z"/>
	<path class="st0" d="M76,23.5c0.1,0,0.1,0.1,0,0.2l-0.5,0.6c0,0.1-0.1,0.1-0.2,0s-0.2-0.1-0.2-0.2c0,0-0.1-0.1-0.2-0.1
		s-0.1-0.1,0-0.2l0.5-0.6c0-0.1,0.1-0.1,0.2,0l-0.1,0.2l-0.4,0.4l0.2,0.2l0.4-0.4l-0.2-0.2l0.1-0.2L76,23.5z"/>
	<path class="st0" d="M69.7,23.1l-0.2,0.1L69.4,23l0.2-0.1c0,0,0,0,0-0.1v-0.1c0,0,0,0-0.1,0l-0.2,0.1l0.1,0.2l0.1,0.2l0.2,0.4
		c-0.1,0-0.1,0.1-0.2,0.1l-0.5-1l0.6-0.3h0.1l0.1,0.3v0.1l0,0l0,0h0.1c0,0.1,0.1,0.2,0.1,0.3c0,0,0,0.1,0.1,0.1l0,0
		c-0.1,0-0.2,0.1-0.2,0.1s-0.1,0-0.1-0.1L69.7,23C69.8,23.1,69.7,23.1,69.7,23.1"/>
	<path class="st0" d="M72,23v-0.2h-0.4V22h-0.2v1C71.6,23,71.8,23,72,23"/>
	<path class="st0" d="M67.7,24.8l0.2,0.1c-0.1,0.2-0.2,0.3-0.4,0.5l-0.8-0.6l0.4-0.5l0.2,0.1L67,24.8l0.1,0.1l0.2-0.3l0.2,0.1
		L67.3,25l0.1,0.1L67.7,24.8z"/>
	<path class="st0" d="M68,24.8L67.3,24l0.1-0.1l0.2,0.1l0.4,0.4l0.2-0.2l-0.4-0.4L67.6,24h-0.2l0.3-0.3c0.1-0.1,0.1-0.1,0.2,0
		l0.5,0.5c0.1,0.1,0.1,0.1,0,0.2s-0.2,0.1-0.2,0.2C68.2,24.5,68,24.7,68,24.8"/>
	<path class="st0" d="M69.1,23.6l0.1,0.2c-0.2,0.1-0.3,0.2-0.5,0.3l-0.6-0.8l0.5-0.4l0.1,0.2l-0.3,0.2l0.1,0.1l0.3-0.2l0.1,0.2
		l-0.3,0.2l0.1,0.1L69.1,23.6z"/>
	<path class="st0" d="M72.5,23l0.2-1h0.1v0.2l-0.1,0.6l0.3,0.1l0.1-0.6l-0.3-0.1V22l0.5,0.1c0.1,0,0.1,0.1,0.1,0.2L73.2,23
		c0,0.1-0.1,0.1-0.2,0.1s-0.2,0-0.2-0.1C72.8,23.1,72.6,23,72.5,23"/>
	<path class="st0" d="M74.1,23.2L74,23.4c-0.2-0.1-0.4-0.2-0.6-0.2l0.4-0.9l0.6,0.2l-0.1,0.2l-0.4-0.1l-0.1,0.2l0.3,0.1L74.1,23.2
		L73.7,23l-0.1,0.2L74.1,23.2z"/>
	<path class="st0" d="M74.6,23.3l0.1-0.2l0.2,0.1H75v-0.1V23l-0.2-0.1l-0.1,0.2L74.6,23.3l-0.2,0.3c-0.1,0-0.1-0.1-0.2-0.1l0.5-0.9
		l0.6,0.3c0,0,0.1,0.1,0,0.1l-0.2,0.4c0,0-0.1,0.1-0.1,0L74.6,23.3z"/>
	<path class="st0" d="M76.2,25.2l0.8-0.6l0.1,0.2l-0.8,0.6C76.3,25.4,76.3,25.3,76.2,25.2C76.2,25.3,76.2,25.2,76.2,25.2"/>
	<path class="st0" d="M77.3,25.6L76.6,26v-0.1v-0.1l0.7-0.4l-0.1-0.2l0.2-0.1l0.3,0.6l-0.2,0.1L77.3,25.6z"/>
	<polygon class="st0" points="66.3,26.5 66.3,26.7 66.5,26.8 66.3,26.9 66.3,27.2 66.1,27 65.8,27 66,26.8 65.9,26.6 66.1,26.7 	"/>
	<polygon class="st0" points="77.5,26.5 77.5,26.7 77.3,26.8 77.5,26.9 77.6,27.2 77.7,27 78,27 77.8,26.8 77.9,26.6 77.7,26.7 	"/>
	<path class="st0" d="M69.6,33.7L69.6,33.7l-0.3-0.1l0.2-0.5l0.3,0.1v0.1l0.2,0.1l0.1-0.1c0-0.1,0-0.2-0.1-0.2S69.8,33,69.8,33
		s-0.1,0-0.2-0.1c-0.1,0-0.2,0-0.2,0.1L69,33.7c0,0.1,0,0.1,0.1,0.2l0.4,0.2c0.1,0,0.2,0,0.2-0.1l0.1-0.1L69.6,33.7z"/>
	<path class="st0" d="M66.7,28l-1-0.1v-0.2l1,0.1v0.1V28"/>
	<path class="st0" d="M66.6,29.3l-0.4,0.1l-0.1,0.1l0.1,0.3H66v-0.4l-0.2,0.1l0.1,0.5c0,0.1,0.1,0.1,0.1,0.1l0.4-0.1l0.1-0.1
		l-0.1-0.3h0.2l0.1,0.4l0.2-0.1l-0.1-0.5C66.8,29.3,66.7,29.3,66.6,29.3"/>
	<path class="st0" d="M66.1,28.9l0.6-0.1v0.1V29l-1,0.1v-0.2l0.6-0.4h-0.6v-0.2h1v0.1v0.1L66.1,28.9z"/>
	<path class="st0" d="M66.3,31c0,0.1,0.1,0.1,0.2,0.1l0.8-0.3l-0.1-0.2l-0.7,0.3l-0.1-0.3l0.7-0.3L67,30l-0.8,0.3
		c-0.1,0-0.1,0.1-0.1,0.2L66.3,31z"/>
	<polygon class="st0" points="67.4,32.5 67.5,32.5 67.7,32.3 68,32.2 67.9,32.5 67.7,32.3 67.5,32.5 67.8,32.7 67.7,32.8 67.8,33 
		68.3,32.1 68.1,31.9 67.2,32.4 	"/>
	<path class="st0" d="M67.8,31.5v0.1l-0.3,0.2h-0.1l0,0l0,0v0.1c-0.1,0-0.2,0.2-0.2,0.2s-0.1,0,0,0.1l0,0L67.1,32c0,0,0-0.1,0.1-0.1
		c0,0,0.1-0.1,0.2-0.1v-0.1L67,31.5l0.2-0.1l0.1,0.2h0.1h0.1c0,0,0,0,0-0.1l-0.1-0.2l-0.1,0.1L67,31.5l-0.3,0.2l-0.1-0.2l0.8-0.6
		C67.5,31.1,67.7,31.3,67.8,31.5"/>
	<path class="st0" d="M70.7,33.6l0.1-0.2c-0.2,0-0.4-0.1-0.6-0.2l-0.3,1l0.6,0.2l0.1-0.2L70.2,34v-0.2l0.3,0.1L70.7,33.6h-0.4v-0.2
		L70.7,33.6z"/>
	<path class="st0" d="M68.8,33.1l0.3-0.5c0,0,0.1,0,0.1,0.1c0,0,0.1,0,0.1,0.1l-0.6,0.8l-0.2-0.1v-0.7l-0.4,0.5L68,33.1l0.6-0.8
		c0,0,0.1,0,0.1,0.1c0,0,0.1,0,0.1,0.1L68.8,33.1z"/>
	<path class="st0" d="M72.5,34.5c-0.1,0-0.1,0-0.2-0.1l-0.1-0.7c0-0.1,0-0.1,0.1-0.2c0.1,0,0.2,0,0.2,0s0.1,0,0.2,0s0.1,0,0.2,0.1
		l0.1,0.7c0,0.1,0,0.1-0.1,0.2l-0.1-0.2l-0.1-0.6h-0.3l0.1,0.6h0.3l0.1,0.2H72.5z"/>
	<path class="st0" d="M74.7,32.7L74.7,32.7l0.3,0.4v0.1l-0.4,0.2l-0.1-0.2l0.2-0.1c0,0,0,0,0-0.1v-0.1c0,0,0,0-0.1,0L74.4,33
		l0.1,0.2l0.1,0.2l0.2,0.3c-0.1,0-0.1,0.1-0.2,0.1L74.1,33C74.2,33,74.5,32.8,74.7,32.7"/>
	<path class="st0" d="M77.6,30.8l-0.7-0.3l-0.1,0.2l-0.2-0.1c0.1-0.2,0.2-0.4,0.3-0.6l0.2,0.1L77,30.3l0.7,0.3L77.6,30.8z"/>
	<path class="st0" d="M71.8,34.2L71.8,34.2l-0.3,0.1v-0.6h0.3v0.1H72v-0.2c0-0.1-0.1-0.1-0.1-0.1c-0.1,0-0.2,0-0.2,0s-0.1,0-0.2,0
		s-0.1,0.1-0.1,0.1v0.7c0,0.1,0.1,0.1,0.1,0.1H72c0.1,0,0.1-0.1,0.1-0.1v-0.1H71.8z"/>
	<path class="st0" d="M73.8,33.1C73.9,33.1,73.9,33.1,73.8,33.1l0.2,0.4c0,0,0,0.1-0.1,0.1l0,0l0,0c0,0,0.1,0,0.1,0.1
		s0.1,0.3,0.1,0.3s0,0.1,0.1,0.1l0,0l-0.2,0c0,0,0,0-0.1-0.1c0,0,0-0.2-0.1-0.2l-0.1-0.1l-0.2,0.1l-0.1-0.2l0.2-0.1c0,0,0,0,0-0.1
		v-0.1c0,0,0,0-0.1,0l-0.2,0.1l0.1,0.2l0.1,0.2l0.1,0.4l-0.2,0.1l-0.3-1C73.3,33.3,73.6,33.2,73.8,33.1"/>
	<path class="st0" d="M75.6,33.3c-0.1,0-0.1,0-0.2,0L75,32.7c0-0.1,0-0.1,0-0.2c0.1-0.1,0.2-0.1,0.2-0.1s0.1-0.1,0.2-0.1
		c0.1-0.1,0.1,0,0.2,0l0.5,0.6c0,0.1,0,0.1,0,0.2L75.9,33l-0.4-0.4l-0.2,0.2L75.6,33.3l0.3-0.3l0.1,0L75.6,33.3z"/>
	<path class="st0" d="M76,31.5L76,31.5l0.3,0.2v0.1l0,0l0,0h0.1c0.1,0,0.2,0.2,0.2,0.2s0.1,0.1,0.1,0l0,0l-0.2,0.2h-0.1
		c0,0-0.1-0.1-0.2-0.2h-0.1L76,32.2l-0.2-0.1l0.2-0.2v-0.1l0,0h-0.1L75.7,32l0.1,0.1l0.2,0.1l0.3,0.3l-0.2,0.2L75.6,32
		C75.8,31.8,75.9,31.6,76,31.5"/>
	<polygon class="st0" points="77.1,31.7 77,31.6 76.8,31.4 76.7,31.2 76.9,31.3 76.8,31.4 77,31.6 77.1,31.3 77.3,31.4 77.5,31.2 
		76.4,30.9 76.3,31.1 77,31.9 	"/>
	<path class="st0" d="M77,29.6l1,0.3l-0.1,0.2l-1-0.3v-0.1C76.9,29.7,77,29.7,77,29.6"/>
	<path class="st0" d="M77.7,27.9h-0.6v-0.1v-0.1h1v0.2l-0.6,0.4h0.6v0.2h-1v-0.1v-0.1L77.7,27.9z"/>
	<path class="st0" d="M78.1,29.5c0,0.1-0.1,0.1-0.2,0.1l-0.7-0.1c-0.1,0-0.1-0.1-0.1-0.2s0-0.2,0-0.2s0-0.1,0-0.2s0.1-0.1,0.2-0.1
		l0.7,0.1c0.1,0,0.1,0.1,0.1,0.2h-0.2L77.3,29v0.3l0.6,0.1v-0.3h0.2V29.5z"/>
	<path class="st0" d="M70.4,26.2c0.1,0,0.1,0,0.1-0.1s0-0.1-0.1-0.1s-0.1,0-0.1,0.1C70.3,26.1,70.3,26.2,70.4,26.2"/>
	<path class="st0" d="M70.4,26.1L70,27.5h0.1l0.3-1v1h0.1v-1l0.3,1H70c0.1,0.2,0.3,0.3,0.4,0.3s0.3-0.1,0.4-0.3L70.4,26.1L70.4,26.1
		z"/>
	<path class="st0" d="M71.9,25.4l0.2,0.1l0,0c-0.1,0-0.1,0.2-0.1,0.2s0,0.1,0.1,0.1s0.2-0.1,0.4-0.1c0.2,0,0.4,0.1,0.6,0.1
		s0.3-0.1,0.3-0.1c0.1,0,0.2,0,0.2,0.1s-0.1,0.1-0.2,0.1s-0.1-0.1-0.3-0.1c-0.2,0-0.4,0.1-0.6,0.1s-0.3-0.1-0.4-0.1
		C72,26,72,26,72,26.1l0.1,0.1L72,26.4l-0.1-0.2l0.1-0.1c0,0,0-0.1-0.1-0.1s-0.2,0.1-0.4,0.1c-0.2,0-0.4-0.1-0.6-0.1
		s-0.3,0.1-0.3,0.1c-0.1,0-0.2,0-0.2-0.1s0.1-0.1,0.2-0.1s0.1,0.1,0.3,0.1c0.2,0,0.4-0.1,0.6-0.1s0.3,0.1,0.4,0.1s0.1-0.1,0.1-0.1
		c0-0.1,0-0.2-0.1-0.2l0,0V25.4z"/>
	<path class="st0" d="M73.4,26.2c-0.1,0-0.1,0-0.1-0.1s0-0.1,0.1-0.1s0.1,0,0.1,0.1C73.5,26.1,73.5,26.2,73.4,26.2"/>
	<path class="st0" d="M73.4,26.1l0.4,1.4h-0.1l-0.3-1v1h-0.1v-1l-0.3,1h0.7c-0.1,0.2-0.3,0.3-0.4,0.3s-0.3-0.1-0.4-0.3L73.4,26.1
		L73.4,26.1z"/>
	<path class="st0" d="M69.5,25.8C69.6,25.8,69.6,25.7,69.5,25.8c0.1-0.2,0.1-0.2,0-0.2C69.5,25.6,69.4,25.6,69.5,25.8
		C69.4,25.7,69.5,25.8,69.5,25.8"/>
	<path class="st0" d="M69.2,26.1C69.2,26.1,69.3,26,69.2,26.1c0.1-0.2,0.1-0.2,0-0.2S69.1,25.9,69.2,26.1
		C69.1,26,69.1,26.1,69.2,26.1"/>
	<path class="st0" d="M69.9,26.1C69.9,26.1,70,26,69.9,26.1c0.1-0.2,0.1-0.2,0-0.2S69.8,25.9,69.9,26.1C69.8,26,69.8,26.1,69.9,26.1
		"/>
	<path class="st0" d="M69.5,26.4C69.6,26.4,69.6,26.4,69.5,26.4c0.1-0.1,0.1-0.2,0-0.2C69.5,26.2,69.4,26.3,69.5,26.4
		C69.4,26.4,69.5,26.4,69.5,26.4"/>
	<path class="st0" d="M70.2,25.8C70.2,25.8,70.3,25.7,70.2,25.8c0.1-0.2,0.1-0.2,0-0.2C70.1,25.6,70.1,25.6,70.2,25.8
		C70.1,25.7,70.1,25.8,70.2,25.8"/>
	<path class="st0" d="M73.6,25.8C73.7,25.8,73.7,25.7,73.6,25.8c0.1-0.2,0.1-0.2,0-0.2C73.6,25.6,73.5,25.6,73.6,25.8
		C73.5,25.7,73.6,25.8,73.6,25.8"/>
	<path class="st0" d="M74.4,25.8C74.4,25.8,74.5,25.7,74.4,25.8c0.1-0.2,0.1-0.2,0-0.2C74.3,25.6,74.3,25.6,74.4,25.8
		C74.3,25.7,74.3,25.8,74.4,25.8"/>
	<path class="st0" d="M70.2,26.4C70.2,26.4,70.3,26.4,70.2,26.4c0.1-0.2,0.1-0.2,0-0.2C70.1,26.2,70.1,26.3,70.2,26.4
		C70.1,26.4,70.1,26.4,70.2,26.4"/>
	<path class="st0" d="M70.9,27.1C70.9,27.1,71,27,70.9,27.1c0.1-0.2,0.1-0.2,0-0.2S70.8,26.9,70.9,27.1C70.8,27,70.8,27.1,70.9,27.1
		"/>
	<path class="st0" d="M71.3,27.4L71.3,27.4c0.1-0.2,0.1-0.2,0-0.2C71.2,27.2,71.2,27.3,71.3,27.4C71.2,27.4,71.2,27.4,71.3,27.4"/>
	<path class="st0" d="M69.8,26.8C69.9,26.8,69.9,26.7,69.8,26.8c0.1-0.2,0.1-0.2,0-0.2C69.8,26.6,69.7,26.6,69.8,26.8
		C69.7,26.7,69.8,26.8,69.8,26.8"/>
	<path class="st0" d="M69.5,27.1C69.6,27.1,69.6,27,69.5,27.1c0.1-0.2,0.1-0.2,0-0.2C69.5,26.9,69.4,26.9,69.5,27.1
		C69.4,27,69.5,27.1,69.5,27.1"/>
	<path class="st0" d="M69.8,27.4C69.9,27.4,69.9,27.4,69.8,27.4c0.1-0.1,0.1-0.2,0-0.2C69.8,27.2,69.8,27.3,69.8,27.4L69.8,27.4"/>
	<path class="st0" d="M70.5,28.1C70.6,28.1,70.6,28.1,70.5,28.1c0.1-0.2,0.1-0.2,0-0.2C70.5,27.9,70.4,27.9,70.5,28.1
		C70.4,28.1,70.5,28.1,70.5,28.1"/>
	<path class="st0" d="M69.5,27.7C69.6,27.7,69.6,27.7,69.5,27.7c0.1-0.2,0.1-0.2,0-0.2C69.5,27.5,69.4,27.6,69.5,27.7
		C69.4,27.7,69.5,27.7,69.5,27.7"/>
	<path class="st0" d="M69.5,28.4C69.6,28.4,69.6,28.4,69.5,28.4c0.1-0.2,0.1-0.2,0-0.2C69.5,28.2,69.4,28.3,69.5,28.4
		C69.4,28.4,69.5,28.4,69.5,28.4"/>
	<path class="st0" d="M69.5,29.1C69.6,29.1,69.6,29,69.5,29.1c0.1-0.2,0.1-0.2,0-0.2C69.5,28.9,69.4,28.9,69.5,29.1
		C69.4,29,69.5,29.1,69.5,29.1"/>
	<path class="st0" d="M69.9,28.7C69.9,28.7,70,28.7,69.9,28.7c0.1-0.2,0.1-0.2,0-0.2C69.8,28.6,69.8,28.6,69.9,28.7
		C69.8,28.7,69.8,28.7,69.9,28.7"/>
	<path class="st0" d="M70.2,28.4C70.3,28.4,70.3,28.4,70.2,28.4c0.1-0.2,0.1-0.2,0-0.2C70.2,28.2,70.1,28.3,70.2,28.4
		C70.1,28.4,70.2,28.4,70.2,28.4"/>
	<path class="st0" d="M69.9,28.1C69.9,28.1,70,28,69.9,28.1c0.1-0.2,0.1-0.2,0-0.2S69.8,27.9,69.9,28.1C69.8,28,69.8,28.1,69.9,28.1
		"/>
	<path class="st0" d="M69.2,29.4C69.2,29.4,69.3,29.4,69.2,29.4c0.1-0.1,0.1-0.2,0-0.2C69.1,29.2,69.1,29.3,69.2,29.4
		C69.1,29.4,69.1,29.4,69.2,29.4"/>
	<path class="st0" d="M70.9,26.4C70.9,26.4,71,26.4,70.9,26.4c0.1-0.2,0.1-0.2,0-0.2C70.8,26.2,70.8,26.3,70.9,26.4
		C70.8,26.4,70.8,26.4,70.9,26.4"/>
	<path class="st0" d="M71.2,26.8C71.3,26.8,71.3,26.7,71.2,26.8c0.1-0.2,0.1-0.2,0-0.2C71.2,26.6,71.1,26.6,71.2,26.8
		C71.1,26.7,71.2,26.8,71.2,26.8"/>
	<path class="st0" d="M71.6,27.1C71.6,27.1,71.7,27,71.6,27.1c0.1-0.2,0.1-0.2,0-0.2S71.5,26.9,71.6,27.1
		C71.5,27,71.5,27.1,71.6,27.1"/>
	<path class="st0" d="M71.6,26.4C71.6,26.4,71.7,26.4,71.6,26.4c0.1-0.2,0.1-0.2,0-0.2C71.5,26.2,71.5,26.3,71.6,26.4
		C71.5,26.4,71.5,26.4,71.6,26.4"/>
	<path class="st0" d="M71.9,26.8C72,26.8,72,26.7,71.9,26.8c0.1-0.2,0.1-0.2,0-0.2C71.9,26.6,71.8,26.6,71.9,26.8
		C71.8,26.7,71.9,26.8,71.9,26.8"/>
	<path class="st0" d="M72.3,26.4L72.3,26.4c0.1-0.2,0.1-0.2,0-0.2C72.2,26.2,72.2,26.3,72.3,26.4C72.2,26.4,72.2,26.4,72.3,26.4"/>
	<path class="st0" d="M72.6,26.8C72.7,26.8,72.7,26.7,72.6,26.8c0.1-0.2,0.1-0.2,0-0.2C72.6,26.6,72.5,26.6,72.6,26.8
		C72.5,26.7,72.6,26.8,72.6,26.8"/>
	<path class="st0" d="M73,26.4C73,26.4,73.1,26.4,73,26.4c0.1-0.2,0.1-0.2,0-0.2C72.9,26.2,72.9,26.3,73,26.4
		C72.9,26.4,72.9,26.4,73,26.4"/>
	<path class="st0" d="M72.3,27.1C72.3,27.1,72.4,27,72.3,27.1c0.1-0.2,0.1-0.2,0-0.2C72.2,26.9,72.2,26.9,72.3,27.1
		C72.2,27,72.2,27.1,72.3,27.1"/>
	<path class="st0" d="M72.7,27.4L72.7,27.4c0.1-0.2,0.1-0.2,0-0.2C72.6,27.3,72.6,27.3,72.7,27.4C72.6,27.4,72.6,27.4,72.7,27.4"/>
	<path class="st0" d="M73,27.1C73,27.1,73.1,27.1,73,27.1c0.1-0.2,0.1-0.2,0-0.2S72.9,27,73,27.1C72.9,27.1,72.9,27.1,73,27.1"/>
	<path class="st0" d="M74,26.1C74.1,26.1,74.1,26.1,74,26.1c0.1-0.2,0.1-0.2,0-0.2S73.9,26,74,26.1C73.9,26.1,73.9,26.1,74,26.1"/>
	<path class="st0" d="M74.7,26.1C74.7,26.1,74.8,26,74.7,26.1c0.1-0.1,0.1-0.2,0-0.2S74.6,25.9,74.7,26.1
		C74.6,26,74.6,26.1,74.7,26.1"/>
	<path class="st0" d="M74.3,26.4C74.4,26.4,74.4,26.4,74.3,26.4c0.1-0.2,0.1-0.2,0-0.2C74.3,26.2,74.2,26.3,74.3,26.4
		C74.2,26.4,74.3,26.4,74.3,26.4"/>
	<path class="st0" d="M74,26.8C74,26.8,74.1,26.7,74,26.8c0.1-0.2,0.1-0.2,0-0.2C73.9,26.6,73.9,26.6,74,26.8
		C73.9,26.7,73.9,26.8,74,26.8"/>
	<path class="st0" d="M74,27.4C74,27.4,74.1,27.4,74,27.4c0.1-0.1,0.1-0.2,0-0.2C73.9,27.3,73.9,27.3,74,27.4
		C73.9,27.4,73.9,27.4,74,27.4"/>
	<path class="st0" d="M74.3,27.1C74.4,27.1,74.4,27.1,74.3,27.1c0.1-0.2,0.1-0.2,0-0.2C74.3,26.9,74.2,27,74.3,27.1
		C74.2,27.1,74.3,27.1,74.3,27.1"/>
	<path class="st0" d="M74.4,27.8C74.5,27.8,74.5,27.7,74.4,27.8c0.1-0.2,0.1-0.2,0-0.2C74.4,27.6,74.3,27.6,74.4,27.8
		C74.3,27.7,74.4,27.8,74.4,27.8"/>
	<path class="st0" d="M74.1,28.1C74.1,28.1,74.2,28.1,74.1,28.1c0.1-0.2,0.1-0.2,0-0.2S74,28,74.1,28.1C74,28.1,74,28.1,74.1,28.1"
		/>
	<path class="st0" d="M73.3,28.1C73.4,28.1,73.4,28.1,73.3,28.1c0.1-0.2,0.1-0.2,0-0.2C73.3,27.9,73.2,28,73.3,28.1
		C73.2,28.1,73.3,28.1,73.3,28.1"/>
	<path class="st0" d="M73.7,28.5C73.8,28.5,73.8,28.4,73.7,28.5c0.1-0.2,0.1-0.2,0-0.2C73.7,28.3,73.6,28.3,73.7,28.5
		C73.6,28.4,73.7,28.5,73.7,28.5"/>
	<path class="st0" d="M74,28.8C74.1,28.8,74.1,28.7,74,28.8c0.1-0.2,0.1-0.2,0-0.2C74,28.6,73.9,28.6,74,28.8
		C73.9,28.7,74,28.8,74,28.8"/>
	<path class="st0" d="M74.4,29.1C74.4,29.1,74.5,29.1,74.4,29.1c0.1-0.2,0.1-0.2,0-0.2S74.3,29,74.4,29.1
		C74.3,29.1,74.3,29.1,74.4,29.1"/>
	<path class="st0" d="M69.8,30.9C69.9,30.9,69.9,30.9,69.8,30.9c0.1-0.2,0.1-0.2,0-0.2C69.8,30.7,69.7,30.8,69.8,30.9
		C69.7,30.9,69.8,30.9,69.8,30.9"/>
	<path class="st0" d="M70.5,30.2C70.6,30.2,70.6,30.2,70.5,30.2c0.1-0.2,0.1-0.2,0-0.2C70.5,30,70.4,30.1,70.5,30.2
		C70.4,30.2,70.5,30.2,70.5,30.2"/>
	<path class="st0" d="M70.8,29.9C70.9,29.9,70.9,29.9,70.8,29.9c0.1-0.1,0.1-0.2,0-0.2C70.8,29.7,70.8,29.7,70.8,29.9L70.8,29.9"/>
	<path class="st0" d="M71.2,29.5C71.3,29.5,71.3,29.5,71.2,29.5c0.1-0.2,0.1-0.2,0-0.2C71.1,29.4,71.1,29.4,71.2,29.5
		C71.1,29.5,71.1,29.5,71.2,29.5"/>
	<path class="st0" d="M71.5,29.2C71.6,29.2,71.6,29.2,71.5,29.2c0.1-0.1,0.1-0.2,0-0.2C71.5,29,71.4,29.1,71.5,29.2
		C71.4,29.2,71.5,29.2,71.5,29.2"/>
	<path class="st0" d="M71.9,28.9C71.9,28.9,72,28.8,71.9,28.9c0.1-0.2,0.1-0.2,0-0.2C71.8,28.7,71.8,28.7,71.9,28.9
		C71.8,28.8,71.8,28.9,71.9,28.9"/>
	<path class="st0" d="M72.2,29.2C72.3,29.2,72.3,29.2,72.2,29.2c0.1-0.1,0.1-0.2,0-0.2C72.2,29,72.1,29.1,72.2,29.2
		C72.1,29.2,72.2,29.2,72.2,29.2"/>
	<path class="st0" d="M72.6,29.5C72.7,29.5,72.7,29.5,72.6,29.5c0.1-0.1,0.1-0.2,0-0.2S72.5,29.4,72.6,29.5
		C72.5,29.5,72.5,29.5,72.6,29.5"/>
	<path class="st0" d="M72.9,29.9C73,29.9,73,29.8,72.9,29.9c0.1-0.1,0.1-0.2,0-0.2C72.9,29.7,72.8,29.7,72.9,29.9
		C72.8,29.8,72.9,29.9,72.9,29.9"/>
	<path class="st0" d="M72.2,29.9C72.3,29.9,72.3,29.8,72.2,29.9c0.1-0.1,0.1-0.2,0-0.2C72.2,29.7,72.1,29.7,72.2,29.9
		C72.1,29.8,72.2,29.9,72.2,29.9"/>
	<path class="st0" d="M71.9,29.6C72,29.6,72,29.5,71.9,29.6c0.1-0.1,0.1-0.2,0-0.2S71.8,29.4,71.9,29.6
		C71.8,29.5,71.8,29.6,71.9,29.6"/>
	<path class="st0" d="M71.6,29.9L71.6,29.9c0.1-0.1,0.1-0.2,0-0.2C71.5,29.7,71.5,29.7,71.6,29.9C71.5,29.9,71.5,29.9,71.6,29.9"/>
	<path class="st0" d="M71.2,30.2C71.3,30.2,71.3,30.2,71.2,30.2c0.1-0.1,0.1-0.2,0-0.2C71.2,30,71.1,30.1,71.2,30.2
		C71.1,30.2,71.2,30.2,71.2,30.2"/>
	<path class="st0" d="M71.9,30.2C72,30.2,72,30.2,71.9,30.2c0.1-0.1,0.1-0.2,0-0.2S71.8,30.1,71.9,30.2
		C71.8,30.2,71.8,30.2,71.9,30.2"/>
	<path class="st0" d="M72.6,30.2C72.6,30.2,72.7,30.2,72.6,30.2c0.1-0.1,0.1-0.2,0-0.2S72.5,30.1,72.6,30.2
		C72.5,30.2,72.5,30.2,72.6,30.2"/>
	<path class="st0" d="M73.6,30.5C73.7,30.5,73.7,30.5,73.6,30.5c0.1-0.1,0.1-0.2,0-0.2C73.6,30.4,73.5,30.4,73.6,30.5
		C73.5,30.5,73.6,30.5,73.6,30.5"/>
	<path class="st0" d="M74,30.9C74,30.9,74.1,30.8,74,30.9c0.1-0.2,0.1-0.2,0-0.2C73.9,30.7,73.9,30.7,74,30.9
		C73.9,30.8,73.9,30.9,74,30.9"/>
	<path class="st0" d="M73.6,31.2C73.7,31.2,73.7,31.2,73.6,31.2c0.1-0.1,0.1-0.2,0-0.2C73.6,31,73.5,31.1,73.6,31.2
		C73.5,31.2,73.6,31.2,73.6,31.2"/>
	<path class="st0" d="M72.3,31.2C72.3,31.2,72.4,31.2,72.3,31.2c0.1-0.1,0.1-0.2,0-0.2C72.2,31,72.2,31.1,72.3,31.2
		C72.2,31.2,72.2,31.2,72.3,31.2"/>
	<path class="st0" d="M71.6,31.2L71.6,31.2c0.1-0.1,0.1-0.2,0-0.2S71.5,31.1,71.6,31.2C71.5,31.2,71.5,31.2,71.6,31.2"/>
	<path class="st0" d="M72.6,31.6C72.6,31.6,72.7,31.5,72.6,31.6c0.1-0.1,0.1-0.2,0-0.2S72.5,31.4,72.6,31.6
		C72.5,31.5,72.5,31.6,72.6,31.6"/>
	<path class="st0" d="M71.9,31.6C72,31.6,72,31.5,71.9,31.6c0.1-0.1,0.1-0.2,0-0.2S71.8,31.4,71.9,31.6
		C71.8,31.5,71.8,31.6,71.9,31.6"/>
	<path class="st0" d="M71.2,31.6C71.3,31.6,71.3,31.5,71.2,31.6c0.1-0.1,0.1-0.2,0-0.2C71.2,31.4,71.1,31.4,71.2,31.6
		C71.1,31.5,71.2,31.6,71.2,31.6"/>
	<path class="st0" d="M75.6,26.2c0.2,0.1,0.4,0.4,0.3,0.5C75.2,26.5,75,27,75,27.3c0,0.7,0.5,1.1,0.5,2.3c0,0.4-0.1,1.9-2.2,2.4
		c-0.3,0.1-1,0.3-1.5,0.7v-0.1c0.5-0.5,1.5-0.6,1.6-0.7c0.8-0.2,1.9-0.9,1.9-2.3c0-0.9-0.4-1.6-0.7-1.6c-0.1,0-0.1,0.2,0,0.3
		c0,0.1,0.1,0.2,0,0.2s-0.3,0-0.3,0.1s0.1,0.1,0.1,0c0,0,0.1,0,0.2,0s0.3,0.1,0.3,0.2s-0.2,0.1-0.2,0.1c0,0.1,0.5,0.4,0.5,0.8
		c0,0.1-0.1,0.1-0.1,0s-0.1-0.2-0.2-0.2s-0.1,0-0.1,0.1s0.2,0.3,0.2,0.5c0,0.3-0.2,0.6-0.3,0.8c-0.1,0.1-0.1,0-0.1,0s0-0.1-0.1-0.1
		s0,0.5-1.3,0.9c-0.2,0.1-0.9,0.2-1.4,0.6c-0.5-0.4-1.1-0.5-1.4-0.6c-1.2-0.3-1.2-0.9-1.3-0.9c-0.1,0-0.1,0.1-0.1,0.1s0,0.1-0.1,0
		c-0.1-0.2-0.3-0.5-0.3-0.8s0.1-0.5,0.2-0.5c0-0.1,0-0.1-0.1-0.1s-0.2,0.1-0.2,0.2s-0.1,0.1-0.1,0c0-0.4,0.5-0.7,0.5-0.8
		c0-0.1-0.2,0-0.2-0.1s0.2-0.2,0.3-0.2c0.1,0,0.1,0,0.2,0h0.1c0-0.1-0.2-0.2-0.3-0.1c-0.1,0-0.1-0.1,0-0.2s0.1-0.3,0-0.3
		c-0.3,0-0.7,0.7-0.7,1.6c0,1.4,1.2,2.1,1.9,2.3c0.2,0,1.1,0.2,1.6,0.7v0.1c-0.5-0.4-1.2-0.6-1.5-0.7c-2.1-0.5-2.2-2-2.2-2.4
		c0-1.2,0.5-1.6,0.5-2.3c0-0.3-0.2-0.8-0.8-0.6c-0.2-0.2,0.1-0.5,0.3-0.5c0-0.2,0.5-0.8,1.3-0.8c0.5,0,1,0.3,1.5,0.3
		c0.2,0,0.6-0.1,0.8-0.2v0.1c-0.2,0.1-0.6,0.2-0.8,0.2c-0.6,0-1-0.3-1.5-0.3c-0.4,0-0.7,0.2-0.9,0.3c0,0,0.1,0,0.1,0.1
		c0.1,0,0,0.1,0,0.1s-0.1-0.1-0.2-0.1L68.3,26c0.1,0,0.2,0,0.3,0.1c0.1,0,0,0.1,0,0.1c-0.1,0-0.2-0.1-0.3-0.1v0.1v0.1
		c-0.1,0-0.4,0.1-0.3,0.3c0.1,0,0.8,0,0.8,0.7c0,0.1,0,0.1,0,0.1c0.1-0.3-0.1-0.7-0.4-0.8c-0.1,0-0.1-0.1,0.1-0.1
		c0.1,0.1,0.4,0.3,0.4,0.7c0,0.1,0,0.3,0,0.3s0.1-0.1,0.1-0.4c0-0.4-0.4-0.8-0.7-0.8v-0.1c0.2,0,0.8,0.1,0.8,1
		c0,0.1-0.1,0.6-0.2,0.8c0.2,0,0.5,0,0.2,0.4c0.4,0.1,0.3,0.4,0.2,0.4c-0.2,0-0.1-0.1-0.3-0.1c-0.1,0-0.1,0.1-0.1,0.1
		c0.1,0,0.1,0.1,0.1,0.2c0,0.2-0.2,0.1-0.4,0.5c0.1,0,0.1,0,0.2,0c0,0,0.2,0,0.2,0.1s-0.2,0.2-0.2,0.6c0,0.2,0.2,0.5,0.3,0.6
		c0.1-0.1,0.1-0.1,0.2-0.1c0.2,0,0.2,0.2,0.2,0.2s0.3,0.5,1,0.7c0.4,0.1,1.2,0.3,1.4,0.6c0.3-0.3,1.1-0.5,1.4-0.6
		c0.7-0.2,1-0.6,1-0.7c0,0,0-0.2,0.2-0.2c0.1,0,0.1,0,0.2,0.1c0.1-0.1,0.3-0.4,0.3-0.6c0-0.4-0.2-0.5-0.2-0.6s0.1-0.1,0.2-0.1
		s0.1,0,0.2,0C75,29,74.8,29.1,74.8,29s0.1-0.1,0.1-0.2c0.1,0,0.1-0.1-0.1-0.1s-0.1,0.1-0.3,0.1c-0.1,0-0.2-0.4,0.2-0.4
		c-0.3-0.4,0.1-0.5,0.2-0.4c-0.2-0.2-0.2-0.6-0.2-0.8c0-0.5,0.2-0.8,0.4-0.9c0-0.1-0.1-0.1-0.1-0.1c-0.1-0.1,0-0.1,0-0.1l0.1,0.1
		h0.1c0-0.1-0.1-0.1-0.1-0.1c-0.1-0.1,0-0.1,0-0.1s0.1,0,0.2,0.2c0.1,0,0.1,0,0.1,0v0.1c-0.3,0-0.7,0.4-0.7,0.8
		c0,0.3,0.1,0.4,0.1,0.4s0-0.2,0-0.3c0-0.4,0.3-0.6,0.4-0.7s0.2,0,0.1,0.1c-0.3,0.1-0.5,0.5-0.4,0.8c0,0,0,0.1,0-0.1
		c0-0.7,0.7-0.7,0.8-0.7c0.1-0.2-0.2-0.3-0.3-0.3v-0.1c0-0.2-0.5-0.7-1.2-0.7c-0.5,0-1,0.3-1.5,0.3c-0.2,0-0.6-0.1-0.8-0.2v-0.1
		c0.2,0.1,0.6,0.2,0.8,0.2c0.6,0,1-0.3,1.5-0.3C75.1,25.3,75.6,26,75.6,26.2"/>
	<path class="st0" d="M72.3,32.2c0.2-0.1,0.8-0.4,1.2-0.5c0.2,0,0.1,0,0,0.1C73,31.9,72.4,32.1,72.3,32.2
		C72.3,32.2,72.2,32.2,72.3,32.2"/>
	<path class="st0" d="M71.6,32.2c-0.2-0.1-0.7-0.4-1.2-0.4c-0.2,0-0.1,0,0,0.1C71,31.9,71.4,32.1,71.6,32.2
		C71.6,32.3,71.7,32.3,71.6,32.2"/>
	<path class="st0" d="M71.9,27.1l3.1,3c0,0,0-0.1,0-0.2l-3.1-3l-3.1,3c0,0.1,0,0.2,0,0.2L71.9,27.1z"/>
	<polygon class="st0" points="71.9,28.5 74.4,30.9 74.4,30.8 71.9,28.3 69.4,30.8 69.4,30.9 	"/>
	<path class="st0" d="M71.9,28.1l2.7,2.6c0.2,0.2,0.4-0.4,0.4-0.5l-3.1-3l-3.1,3l0.3,0.2v-0.2L69,30.1h0.1l0.1-0.1l0.1,0.1l0.2-0.1
		v-0.2l-0.1-0.1h0.1l0.1-0.1l0.1,0.1l0.2-0.1v-0.2l-0.1-0.1h0.1l0.1-0.1l0.1,0.1l0.2-0.1V29l-0.1-0.1h0.1l0.1-0.1l0.1,0.1l0.2-0.1
		v-0.2l-0.1-0.1h0.1l0.1-0.1l0.1,0.1l0.2-0.1v-0.2l0.1-0.2h0.1l0.1-0.1l0.1,0.1l0.2-0.1v-0.2l-0.1-0.1h0.1l0.1-0.1l0.1,0.1H72
		l-0.1,0.1v0.2V28H72l0.1-0.1l0.1,0.1h0.1l-0.1,0.1v0.2l0.2,0.1l0.1-0.1l0.1,0.1h0.1l-0.1,0.1v0.2l0.2,0.1l0.1-0.1l0.1,0.1h0.1
		l0.3,0.2v0.2l0.2,0.1l0.1-0.1l0.1,0.1h0.1l-0.1,0.1v0.2l0.2,0.1l0.1-0.1l0.1,0.1h0.1l-0.1,0.1V30l0.2,0.1l0.1-0.1l0.1,0.1h0.1
		l-0.1,0.1v0.2h-0.1h-0.1v-0.2l-0.1-0.1h0.1L74.2,30h-0.1H74v-0.2l-0.1-0.1H74l-0.2-0.1h-0.1h-0.1v-0.2l-0.1-0.1h0.1l-0.2-0.1
		l-0.1-0.1l-0.1,0.1V29L73,28.9h0.1l-0.2-0.1h-0.1h-0.1v-0.2l-0.1-0.1h0.2l-0.2-0.1h-0.1h-0.1v-0.2L72.1,28v-0.1H72h-0.1L71.6,28
		h0.1l-0.1,0.1v0.2h-0.1h-0.1l-0.2,0.1h0.2l-0.1,0.1v0.2h-0.1h-0.1l-0.2,0.1H71L70.7,29v0.2l-0.1-0.1l-0.1,0.1l-0.2,0.1h0.1
		l-0.1,0.1v0.2h-0.1h-0.1l-0.2,0.1H70l-0.1,0.1V30h-0.1h-0.1l-0.2,0.1h0.1l-0.1,0.1v0.2h-0.1h-0.1L69,30.2c0,0.2,0.2,0.7,0.4,0.5
		L71.9,28.1z"/>
	<polygon class="st0" points="7.9,19.8 7.9,24.8 16.5,24.8 16.5,31.5 7.9,31.5 7.9,43.4 0,43.4 0,13.1 17.4,13.1 17.4,19.8 	"/>
	<path class="st0" d="M18.9,13.1v30.2h7.8v-6.7V19.8h1.8c5.1,0,8.6,3,8.6,8.5c0,5.9-4,8.5-8.7,8.5h-1.8v6.7H30
		c8.4,0,15.4-6.6,15.4-15.1S38.5,13.3,30,13.3H18.9V13.1z"/>
	<rect x="46.5" y="13.1" class="st0" width="7.9" height="30.2"/>
	<path class="st0" d="M78.6,23.3C77,21.1,74.4,20,71.7,20c-4.8,0-8.1,3.7-8.1,8.4c0,4.8,3.3,8.2,8.2,8.2c2.6,0,5.1-1.2,6.8-3.2v9.4
		c-2.6,0.8-4.5,1.4-6.9,1.4c-4.2,0-8.2-1.6-11.4-4.5c-3.3-3-4.9-6.9-4.9-11.4c0-4.1,1.6-8.1,4.5-11.1c3-3,7.3-4.9,11.5-4.9
		c2.5,0,4.9,0.6,7.2,1.5C78.6,13.8,78.6,23.3,78.6,23.3z"/>
</g>
<path class="st0" d="M0,8.4v1.1h4.4V8.4c-1.3,0-1.5-0.2-1.5-1.1V2l2.6,7.5h1.1L9.4,2v5.2c0,1.1,0,1.1-1.5,1.2v1.1H13V8.4
	c-1.5,0-1.5-0.2-1.5-0.9V2.2c0-0.9,0.1-1.1,1.5-1.1V0H8.6L6.4,6l-2-6H0v1.1c1.2,0,1.4,0,1.4,1.1v5C1.4,8.1,1.4,8.4,0,8.4z"/>
<path class="st0" d="M29.2,8.4v1.1h4V8.4c-1,0-1-0.2-1-1.5V5.7c0-1.1,0.5-2,1.5-2c0.8,0,1.1,0.5,1.1,1.3v2.4c0,0.8,0,1-1,1v1.1h3.6
	V8.4c-0.9,0-0.9-0.1-0.9-0.9V5.8c0-1.1,0.5-2.1,1.6-2.1c0.8,0,1,0.5,1,1.5v2.4c0,0.7,0,0.8-1,0.8v1.1h4V8.4c-1.2,0-1.3,0-1.3-0.7V5
	c0-1.5-0.4-2.4-2-2.4c-0.9,0-1.5,0.4-2.3,1.2c-0.4-0.7-1-1.2-2-1.2s-1.7,0.5-2.3,1.3V2.7h-3.1v1c1.2,0,1.3,0,1.3,1V7
	C30.6,8.4,30.6,8.4,29.2,8.4z"/>
<path class="st0" d="M46.7,0h2.9v3.5c0.8-0.7,1.3-0.9,2-0.9c1.6,0,2.7,1.5,2.7,3.5c0,2.2-1.1,3.6-3,3.6c-0.9,0-1.5-0.3-2.1-0.9
	l-0.6,0.8h-0.9V2.2c0-1.1-0.1-1.2-1.1-1.2L46.7,0L46.7,0z M52.4,6.1c0-1.5-0.6-2.3-1.4-2.3c-1.1,0-1.5,0.9-1.5,2.4
	c0,1.4,0.5,2.3,1.5,2.3C51.7,8.5,52.4,7.8,52.4,6.1z"/>
<path class="st0" d="M71.9,8.4v1.1h4.4V8.4c-1.2,0-1.3,0-1.3-0.9V6c0-1.3,0.4-2.6,1.7-2.6c0.1,0,0.2,0,0.4,0.1
	c-0.4,0.2-0.7,0.5-0.7,0.9c0,0.5,0.4,0.9,0.9,0.9c0.7,0,1.1-0.5,1.1-1.2c0-0.9-0.7-1.5-1.5-1.5c-0.7,0-1.3,0.4-1.9,1.1v-1h-3v1
	c1.1,0,1.3,0,1.3,0.9v2.8C73.2,8.3,73.2,8.4,71.9,8.4z"/>
<path class="st0" d="M62,6.3c0,1.3,0.6,2.2,1.7,2.2c1,0,1.4-0.6,1.6-1.5h1.2c-0.2,1.7-1.3,2.6-3,2.6c-2,0-3.4-1.2-3.4-3.5
	c0-2.1,1.3-3.6,3.3-3.6c1.9,0,3.1,1.5,3.1,3.7L62,6.3L62,6.3z M63.4,3.6c-0.8,0-1.3,0.6-1.3,1.6h2.6C64.6,4.2,64.2,3.6,63.4,3.6z"/>
<path class="st0" d="M19.5,6.3c0,1.3,0.7,2.2,1.8,2.2c1,0,1.4-0.6,1.6-1.5h1.2c-0.2,1.7-1.3,2.6-2.9,2.6c-2,0-3.5-1.2-3.5-3.5
	C17.7,4,19,2.5,21,2.5c1.9,0,3.1,1.5,3.1,3.7L19.5,6.3L19.5,6.3z M21,3.6c-0.8,0-1.3,0.6-1.3,1.6h2.5C22.2,4.1,21.8,3.6,21,3.6z"/>
</svg>
