<svg width="159" height="25" viewBox="0 0 159 25" fill="none" xmlns="http://www.w3.org/2000/svg">
<path d="M59.764 19V6.4H65.128C65.848 6.4 66.508 6.58 67.108 6.94C67.72 7.288 68.206 7.768 68.566 8.38C68.926 8.98 69.106 9.658 69.106 10.414C69.106 11.098 68.926 11.734 68.566 12.322C68.206 12.91 67.726 13.384 67.126 13.744C66.526 14.092 65.86 14.266 65.128 14.266H61.708V19H59.764ZM67.252 19L64.048 13.312L66.046 12.862L69.61 19.018L67.252 19ZM61.708 12.394H65.308C65.656 12.394 65.968 12.31 66.244 12.142C66.52 11.962 66.736 11.722 66.892 11.422C67.048 11.11 67.126 10.768 67.126 10.396C67.126 9.976 67.024 9.61 66.82 9.298C66.628 8.974 66.352 8.722 65.992 8.542C65.644 8.362 65.248 8.272 64.804 8.272H61.708V12.394Z" fill="url(#paint0_linear_4001_6)"/>
<path d="M76.1581 19V12.844C76.1581 12.316 75.9661 11.89 75.5821 11.566C75.2101 11.23 74.7361 11.062 74.1601 11.062C73.6321 11.062 73.1521 11.17 72.7201 11.386C72.3001 11.602 71.9161 11.932 71.5681 12.376L70.3621 11.17C70.9261 10.558 71.5321 10.102 72.1801 9.802C72.8401 9.502 73.5481 9.352 74.3041 9.352C75.0241 9.352 75.6481 9.472 76.1761 9.712C76.7041 9.952 77.1121 10.306 77.4001 10.774C77.6881 11.23 77.8321 11.788 77.8321 12.448V19H76.1581ZM73.3321 19.18C72.7201 19.18 72.1741 19.06 71.6941 18.82C71.2141 18.58 70.8301 18.25 70.5421 17.83C70.2661 17.398 70.1281 16.894 70.1281 16.318C70.1281 15.814 70.2181 15.37 70.3981 14.986C70.5781 14.602 70.8421 14.284 71.1901 14.032C71.5501 13.78 71.9941 13.588 72.5221 13.456C73.0621 13.324 73.6801 13.258 74.3761 13.258H77.0041L76.8421 14.734H74.1421C73.7821 14.734 73.4581 14.77 73.1701 14.842C72.8941 14.902 72.6541 15.004 72.4501 15.148C72.2581 15.28 72.1141 15.442 72.0181 15.634C71.9221 15.814 71.8741 16.03 71.8741 16.282C71.8741 16.546 71.9401 16.78 72.0721 16.984C72.2041 17.176 72.3841 17.326 72.6121 17.434C72.8401 17.542 73.1041 17.596 73.4041 17.596C73.8361 17.596 74.2441 17.524 74.6281 17.38C75.0241 17.224 75.3721 17.014 75.6721 16.75C75.9841 16.486 76.2241 16.192 76.3921 15.868L76.8241 17.074C76.5721 17.494 76.2601 17.86 75.8881 18.172C75.5161 18.484 75.1141 18.73 74.6821 18.91C74.2501 19.09 73.8001 19.18 73.3321 19.18Z" fill="url(#paint1_linear_4001_6)"/>
<path d="M83.2173 19.18C82.3533 19.18 81.5793 18.97 80.8953 18.55C80.2233 18.118 79.6893 17.536 79.2933 16.804C78.8973 16.06 78.6993 15.214 78.6993 14.266C78.6993 13.318 78.8913 12.478 79.2753 11.746C79.6713 11.002 80.2053 10.42 80.8773 10C81.5493 9.568 82.3113 9.352 83.1633 9.352C83.6313 9.352 84.0813 9.43 84.5133 9.586C84.9573 9.73 85.3533 9.934 85.7013 10.198C86.0493 10.45 86.3193 10.732 86.5113 11.044C86.7153 11.344 86.8173 11.65 86.8173 11.962L86.2773 11.998V5.68H88.1313V19H86.2773V16.75H86.6373C86.6373 17.038 86.5413 17.326 86.3493 17.614C86.1573 17.89 85.8993 18.148 85.5753 18.388C85.2633 18.628 84.8973 18.82 84.4773 18.964C84.0693 19.108 83.6493 19.18 83.2173 19.18ZM83.4693 17.578C84.0333 17.578 84.5313 17.434 84.9633 17.146C85.3953 16.858 85.7313 16.468 85.9713 15.976C86.2233 15.472 86.3493 14.902 86.3493 14.266C86.3493 13.63 86.2233 13.066 85.9713 12.574C85.7313 12.07 85.3953 11.674 84.9633 11.386C84.5313 11.098 84.0333 10.954 83.4693 10.954C82.9053 10.954 82.4073 11.098 81.9753 11.386C81.5433 11.674 81.2013 12.07 80.9493 12.574C80.7093 13.066 80.5893 13.63 80.5893 14.266C80.5893 14.902 80.7093 15.472 80.9493 15.976C81.2013 16.468 81.5433 16.858 81.9753 17.146C82.4073 17.434 82.9053 17.578 83.4693 17.578Z" fill="url(#paint2_linear_4001_6)"/>
<path d="M90.0895 19V9.55H91.9435V19H90.0895ZM90.9895 7.462C90.5935 7.462 90.2875 7.36 90.0715 7.156C89.8555 6.952 89.7475 6.664 89.7475 6.292C89.7475 5.944 89.8555 5.662 90.0715 5.446C90.2995 5.23 90.6055 5.122 90.9895 5.122C91.3855 5.122 91.6915 5.224 91.9075 5.428C92.1235 5.632 92.2315 5.92 92.2315 6.292C92.2315 6.64 92.1175 6.922 91.8895 7.138C91.6735 7.354 91.3735 7.462 90.9895 7.462Z" fill="url(#paint3_linear_4001_6)"/>
<path d="M98.1413 19.18C97.2173 19.18 96.3893 18.97 95.6573 18.55C94.9373 18.118 94.3673 17.536 93.9473 16.804C93.5273 16.06 93.3173 15.214 93.3173 14.266C93.3173 13.318 93.5273 12.478 93.9473 11.746C94.3673 11.002 94.9373 10.42 95.6573 10C96.3893 9.568 97.2173 9.352 98.1413 9.352C99.0533 9.352 99.8693 9.568 100.589 10C101.321 10.42 101.897 11.002 102.317 11.746C102.737 12.478 102.947 13.318 102.947 14.266C102.947 15.214 102.737 16.06 102.317 16.804C101.897 17.536 101.321 18.118 100.589 18.55C99.8693 18.97 99.0533 19.18 98.1413 19.18ZM98.1413 17.488C98.7053 17.488 99.2093 17.35 99.6533 17.074C100.097 16.786 100.445 16.402 100.697 15.922C100.949 15.43 101.069 14.878 101.057 14.266C101.069 13.642 100.949 13.09 100.697 12.61C100.445 12.118 100.097 11.734 99.6533 11.458C99.2093 11.182 98.7053 11.044 98.1413 11.044C97.5773 11.044 97.0673 11.188 96.6113 11.476C96.1673 11.752 95.8193 12.136 95.5673 12.628C95.3153 13.108 95.1953 13.654 95.2073 14.266C95.1953 14.878 95.3153 15.43 95.5673 15.922C95.8193 16.402 96.1673 16.786 96.6113 17.074C97.0673 17.35 97.5773 17.488 98.1413 17.488Z" fill="url(#paint4_linear_4001_6)"/>
<path d="M108.68 19V6.4H114.044C114.764 6.4 115.424 6.58 116.024 6.94C116.636 7.288 117.122 7.768 117.482 8.38C117.842 8.98 118.022 9.658 118.022 10.414C118.022 11.098 117.842 11.734 117.482 12.322C117.122 12.91 116.642 13.384 116.042 13.744C115.442 14.092 114.776 14.266 114.044 14.266H110.624V19H108.68ZM116.168 19L112.964 13.312L114.962 12.862L118.526 19.018L116.168 19ZM110.624 12.394H114.224C114.572 12.394 114.884 12.31 115.16 12.142C115.436 11.962 115.652 11.722 115.808 11.422C115.964 11.11 116.042 10.768 116.042 10.396C116.042 9.976 115.94 9.61 115.736 9.298C115.544 8.974 115.268 8.722 114.908 8.542C114.56 8.362 114.164 8.272 113.72 8.272H110.624V12.394Z" fill="url(#paint5_linear_4001_6)"/>
<path d="M123.886 19.18C122.914 19.18 122.05 18.976 121.294 18.568C120.55 18.148 119.962 17.578 119.53 16.858C119.11 16.138 118.9 15.31 118.9 14.374C118.9 13.63 119.02 12.952 119.26 12.34C119.5 11.728 119.83 11.2 120.25 10.756C120.682 10.3 121.192 9.952 121.78 9.712C122.38 9.46 123.028 9.334 123.724 9.334C124.336 9.334 124.906 9.454 125.434 9.694C125.962 9.922 126.418 10.24 126.802 10.648C127.198 11.056 127.498 11.542 127.702 12.106C127.918 12.658 128.02 13.264 128.008 13.924L127.99 14.716H120.268L119.854 13.24H126.388L126.118 13.546V13.114C126.082 12.718 125.95 12.364 125.722 12.052C125.494 11.74 125.206 11.494 124.858 11.314C124.51 11.134 124.132 11.044 123.724 11.044C123.076 11.044 122.53 11.17 122.086 11.422C121.642 11.662 121.306 12.022 121.078 12.502C120.85 12.97 120.736 13.552 120.736 14.248C120.736 14.908 120.874 15.484 121.15 15.976C121.426 16.456 121.816 16.828 122.32 17.092C122.824 17.356 123.406 17.488 124.066 17.488C124.534 17.488 124.966 17.41 125.362 17.254C125.77 17.098 126.208 16.816 126.676 16.408L127.612 17.722C127.324 18.01 126.97 18.262 126.55 18.478C126.142 18.694 125.704 18.868 125.236 19C124.78 19.12 124.33 19.18 123.886 19.18Z" fill="url(#paint6_linear_4001_6)"/>
<path d="M129.123 22.96V9.55H130.995V11.71L130.707 11.548C130.779 11.188 130.983 10.846 131.319 10.522C131.655 10.186 132.063 9.916 132.543 9.712C133.035 9.496 133.539 9.388 134.055 9.388C134.907 9.388 135.663 9.598 136.323 10.018C136.983 10.438 137.505 11.014 137.889 11.746C138.273 12.478 138.465 13.318 138.465 14.266C138.465 15.202 138.273 16.042 137.889 16.786C137.517 17.518 137.001 18.1 136.341 18.532C135.681 18.952 134.937 19.162 134.109 19.162C133.557 19.162 133.023 19.054 132.507 18.838C131.991 18.61 131.553 18.322 131.193 17.974C130.833 17.626 130.611 17.266 130.527 16.894L130.995 16.642V22.96H129.123ZM133.803 17.452C134.355 17.452 134.847 17.314 135.279 17.038C135.711 16.762 136.053 16.384 136.305 15.904C136.557 15.424 136.683 14.878 136.683 14.266C136.683 13.654 136.557 13.114 136.305 12.646C136.065 12.166 135.729 11.788 135.297 11.512C134.865 11.236 134.367 11.098 133.803 11.098C133.239 11.098 132.741 11.236 132.309 11.512C131.877 11.776 131.535 12.148 131.283 12.628C131.031 13.108 130.905 13.654 130.905 14.266C130.905 14.878 131.031 15.424 131.283 15.904C131.535 16.384 131.877 16.762 132.309 17.038C132.741 17.314 133.239 17.452 133.803 17.452Z" fill="url(#paint7_linear_4001_6)"/>
<path d="M145.177 19V12.844C145.177 12.316 144.985 11.89 144.601 11.566C144.229 11.23 143.755 11.062 143.179 11.062C142.651 11.062 142.171 11.17 141.739 11.386C141.319 11.602 140.935 11.932 140.587 12.376L139.381 11.17C139.945 10.558 140.551 10.102 141.199 9.802C141.859 9.502 142.567 9.352 143.323 9.352C144.043 9.352 144.667 9.472 145.195 9.712C145.723 9.952 146.131 10.306 146.419 10.774C146.707 11.23 146.851 11.788 146.851 12.448V19H145.177ZM142.351 19.18C141.739 19.18 141.193 19.06 140.713 18.82C140.233 18.58 139.849 18.25 139.561 17.83C139.285 17.398 139.147 16.894 139.147 16.318C139.147 15.814 139.237 15.37 139.417 14.986C139.597 14.602 139.861 14.284 140.209 14.032C140.569 13.78 141.013 13.588 141.541 13.456C142.081 13.324 142.699 13.258 143.395 13.258H146.023L145.861 14.734H143.161C142.801 14.734 142.477 14.77 142.189 14.842C141.913 14.902 141.673 15.004 141.469 15.148C141.277 15.28 141.133 15.442 141.037 15.634C140.941 15.814 140.893 16.03 140.893 16.282C140.893 16.546 140.959 16.78 141.091 16.984C141.223 17.176 141.403 17.326 141.631 17.434C141.859 17.542 142.123 17.596 142.423 17.596C142.855 17.596 143.263 17.524 143.647 17.38C144.043 17.224 144.391 17.014 144.691 16.75C145.003 16.486 145.243 16.192 145.411 15.868L145.843 17.074C145.591 17.494 145.279 17.86 144.907 18.172C144.535 18.484 144.133 18.73 143.701 18.91C143.269 19.09 142.819 19.18 142.351 19.18Z" fill="url(#paint8_linear_4001_6)"/>
<path d="M148.6 19V9.55H150.454V19H148.6ZM149.5 7.462C149.104 7.462 148.798 7.36 148.582 7.156C148.366 6.952 148.258 6.664 148.258 6.292C148.258 5.944 148.366 5.662 148.582 5.446C148.81 5.23 149.116 5.122 149.5 5.122C149.896 5.122 150.202 5.224 150.418 5.428C150.634 5.632 150.742 5.92 150.742 6.292C150.742 6.64 150.628 6.922 150.4 7.138C150.184 7.354 149.884 7.462 149.5 7.462Z" fill="url(#paint9_linear_4001_6)"/>
<path d="M152.404 19V9.55H154.276V12.52L154.096 11.8C154.228 11.344 154.45 10.93 154.762 10.558C155.086 10.186 155.452 9.892 155.86 9.676C156.28 9.46 156.712 9.352 157.156 9.352C157.36 9.352 157.552 9.37 157.732 9.406C157.924 9.442 158.074 9.484 158.182 9.532L157.696 11.548C157.552 11.488 157.39 11.44 157.21 11.404C157.042 11.356 156.874 11.332 156.706 11.332C156.382 11.332 156.07 11.398 155.77 11.53C155.482 11.65 155.224 11.824 154.996 12.052C154.78 12.268 154.606 12.526 154.474 12.826C154.342 13.114 154.276 13.432 154.276 13.78V19H152.404Z" fill="url(#paint10_linear_4001_6)"/>
<path fill-rule="evenodd" clip-rule="evenodd" d="M0 12C0 5.37258 5.37258 0 12 0H52V25H0V12ZM12.5113 19.18C11.6233 19.18 10.8013 19.018 10.0453 18.694C9.30132 18.37 8.64732 17.92 8.08332 17.344C7.53132 16.756 7.09932 16.072 6.78732 15.292C6.48732 14.5 6.33732 13.636 6.33732 12.7C6.33732 11.764 6.48732 10.906 6.78732 10.126C7.09932 9.334 7.53132 8.65 8.08332 8.074C8.64732 7.486 9.30132 7.03 10.0453 6.706C10.8013 6.382 11.6233 6.22 12.5113 6.22C13.3993 6.22 14.2153 6.382 14.9593 6.706C15.7153 7.03 16.3693 7.486 16.9213 8.074C17.4853 8.662 17.9173 9.352 18.2173 10.144C18.5293 10.924 18.6853 11.776 18.6853 12.7C18.6853 13.624 18.5293 14.482 18.2173 15.274C17.9173 16.054 17.4853 16.738 16.9213 17.326C16.3693 17.914 15.7153 18.37 14.9593 18.694C14.2153 19.018 13.3993 19.18 12.5113 19.18ZM14.1853 16.948C13.6813 17.176 13.1233 17.29 12.5113 17.29C11.6953 17.29 10.9693 17.092 10.3333 16.696C9.70932 16.3 9.21732 15.76 8.85732 15.076C8.49732 14.38 8.31732 13.588 8.31732 12.7C8.31732 12.028 8.41932 11.416 8.62332 10.864C8.82732 10.3 9.11532 9.814 9.48732 9.406C9.87132 8.998 10.3153 8.68 10.8193 8.452C11.3353 8.224 11.8993 8.11 12.5113 8.11C13.1233 8.11 13.6813 8.224 14.1853 8.452C14.7013 8.68 15.1453 9.004 15.5173 9.424C15.8893 9.832 16.1773 10.318 16.3813 10.882C16.5973 11.434 16.7053 12.04 16.7053 12.7C16.7053 13.36 16.5973 13.972 16.3813 14.536C16.1773 15.088 15.8893 15.574 15.5173 15.994C15.1453 16.402 14.7013 16.72 14.1853 16.948ZM29.4354 19H21.4974V6.4H29.4354V8.272H23.4414V11.602H28.4454V13.474H23.4414V17.128H29.4354V19ZM32.734 19H34.678V13.834C34.678 12.67 34.648 11.668 34.588 10.828C34.5661 10.4385 34.5354 10.054 34.4959 9.67453L38.116 15.382H39.304L42.998 9.67165C42.9523 10.0857 42.915 10.5012 42.886 10.918C42.838 11.782 42.814 12.754 42.814 13.834V19H44.758V6.4H42.958L38.7707 13.1192L34.642 6.4H32.734V19Z" fill="url(#paint11_linear_4001_6)"/>
<defs>
<linearGradient id="paint0_linear_4001_6" x1="95.5" y1="-2.58405e-06" x2="92.5" y2="70.5" gradientUnits="userSpaceOnUse">
<stop stop-color="white"/>
<stop offset="1" stop-color="#0061FF"/>
</linearGradient>
<linearGradient id="paint1_linear_4001_6" x1="95.5" y1="-2.58405e-06" x2="92.5" y2="70.5" gradientUnits="userSpaceOnUse">
<stop stop-color="white"/>
<stop offset="1" stop-color="#0061FF"/>
</linearGradient>
<linearGradient id="paint2_linear_4001_6" x1="95.5" y1="-2.58405e-06" x2="92.5" y2="70.5" gradientUnits="userSpaceOnUse">
<stop stop-color="white"/>
<stop offset="1" stop-color="#0061FF"/>
</linearGradient>
<linearGradient id="paint3_linear_4001_6" x1="95.5" y1="-2.58405e-06" x2="92.5" y2="70.5" gradientUnits="userSpaceOnUse">
<stop stop-color="white"/>
<stop offset="1" stop-color="#0061FF"/>
</linearGradient>
<linearGradient id="paint4_linear_4001_6" x1="95.5" y1="-2.58405e-06" x2="92.5" y2="70.5" gradientUnits="userSpaceOnUse">
<stop stop-color="white"/>
<stop offset="1" stop-color="#0061FF"/>
</linearGradient>
<linearGradient id="paint5_linear_4001_6" x1="95.5" y1="-2.58405e-06" x2="92.5" y2="70.5" gradientUnits="userSpaceOnUse">
<stop stop-color="white"/>
<stop offset="1" stop-color="#0061FF"/>
</linearGradient>
<linearGradient id="paint6_linear_4001_6" x1="95.5" y1="-2.58405e-06" x2="92.5" y2="70.5" gradientUnits="userSpaceOnUse">
<stop stop-color="white"/>
<stop offset="1" stop-color="#0061FF"/>
</linearGradient>
<linearGradient id="paint7_linear_4001_6" x1="95.5" y1="-2.58405e-06" x2="92.5" y2="70.5" gradientUnits="userSpaceOnUse">
<stop stop-color="white"/>
<stop offset="1" stop-color="#0061FF"/>
</linearGradient>
<linearGradient id="paint8_linear_4001_6" x1="95.5" y1="-2.58405e-06" x2="92.5" y2="70.5" gradientUnits="userSpaceOnUse">
<stop stop-color="white"/>
<stop offset="1" stop-color="#0061FF"/>
</linearGradient>
<linearGradient id="paint9_linear_4001_6" x1="95.5" y1="-2.58405e-06" x2="92.5" y2="70.5" gradientUnits="userSpaceOnUse">
<stop stop-color="white"/>
<stop offset="1" stop-color="#0061FF"/>
</linearGradient>
<linearGradient id="paint10_linear_4001_6" x1="95.5" y1="-2.58405e-06" x2="92.5" y2="70.5" gradientUnits="userSpaceOnUse">
<stop stop-color="white"/>
<stop offset="1" stop-color="#0061FF"/>
</linearGradient>
<linearGradient id="paint11_linear_4001_6" x1="95.5" y1="-2.58405e-06" x2="92.5" y2="70.5" gradientUnits="userSpaceOnUse">
<stop stop-color="white"/>
<stop offset="1" stop-color="#0061FF"/>
</linearGradient>
</defs>
</svg>
