<svg width="365" height="58" viewBox="0 0 365 58" fill="none" xmlns="http://www.w3.org/2000/svg">
<path d="M207.879 43.842V22.0364H212.157V43.842H207.879ZM209.956 17.2184C209.042 17.2184 208.336 16.983 207.837 16.5123C207.339 16.0416 207.09 15.377 207.09 14.5186C207.09 13.7156 207.339 13.0649 207.837 12.5665C208.364 12.0681 209.07 11.8189 209.956 11.8189C210.869 11.8189 211.576 12.0542 212.074 12.525C212.572 12.9957 212.822 13.6602 212.822 14.5186C212.822 15.3216 212.558 15.9723 212.032 16.4707C211.534 16.9692 210.842 17.2184 209.956 17.2184Z" fill="white"/>
<path d="M226.458 44.2573C224.326 44.2573 222.415 43.7728 220.726 42.8036C219.065 41.8068 217.75 40.4639 216.781 38.7748C215.812 37.058 215.327 35.1059 215.327 32.9184C215.327 30.7309 215.812 28.7927 216.781 27.1036C217.75 25.3868 219.065 24.0439 220.726 23.0747C222.415 22.0779 224.326 21.5795 226.458 21.5795C228.563 21.5795 230.445 22.0779 232.107 23.0747C233.796 24.0439 235.125 25.3868 236.094 27.1036C237.063 28.7927 237.548 30.7309 237.548 32.9184C237.548 35.1059 237.063 37.058 236.094 38.7748C235.125 40.4639 233.796 41.8068 232.107 42.8036C230.445 43.7728 228.563 44.2573 226.458 44.2573ZM226.458 40.3531C227.76 40.3531 228.923 40.0347 229.947 39.3978C230.972 38.7332 231.775 37.8472 232.356 36.7396C232.938 35.6043 233.214 34.3306 233.187 32.9184C233.214 31.4786 232.938 30.2048 232.356 29.0972C231.775 27.962 230.972 27.0759 229.947 26.439C228.923 25.8022 227.76 25.4837 226.458 25.4837C225.157 25.4837 223.98 25.816 222.928 26.4806C221.903 27.1174 221.1 28.0035 220.519 29.1388C219.937 30.2464 219.66 31.5062 219.688 32.9184C219.66 34.3306 219.937 35.6043 220.519 36.7396C221.1 37.8472 221.903 38.7332 222.928 39.3978C223.98 40.0347 225.157 40.3531 226.458 40.3531Z" fill="white"/>
<path d="M342.89 43.842V22.0364H347.168V43.842H342.89ZM344.967 17.2184C344.053 17.2184 343.347 16.983 342.849 16.5123C342.35 16.0416 342.101 15.377 342.101 14.5186C342.101 13.7156 342.35 13.0649 342.849 12.5665C343.375 12.0681 344.081 11.8189 344.967 11.8189C345.881 11.8189 346.587 12.0542 347.085 12.525C347.584 12.9957 347.833 13.6602 347.833 14.5186C347.833 15.3216 347.57 15.9723 347.044 16.4707C346.545 16.9692 345.853 17.2184 344.967 17.2184Z" fill="white"/>
<path fill-rule="evenodd" clip-rule="evenodd" d="M0 27.6897C0 12.3971 12.3971 0 27.6897 0H119.989V57.6868H0V27.6897ZM54.0904 26.7713V19.0874H67.9213V14.7678H49.6046V43.842H67.9213V39.5224H54.0904V31.0909H65.6369V26.7713H54.0904ZM23.1793 43.1359C24.9237 43.8835 26.8205 44.2573 28.8695 44.2573C30.9185 44.2573 32.8014 43.8835 34.5182 43.1359C36.2627 42.3883 37.7717 41.3361 39.0455 39.9793C40.3469 38.6225 41.3437 37.0442 42.0359 35.2443C42.7559 33.4168 43.1158 31.437 43.1158 29.3049C43.1158 27.1728 42.7559 25.2068 42.0359 23.407C41.3437 21.5795 40.3469 19.9873 39.0455 18.6305C37.7717 17.2737 36.2627 16.2215 34.5182 15.4739C32.8014 14.7263 30.9185 14.3525 28.8695 14.3525C26.8205 14.3525 24.9237 14.7263 23.1793 15.4739C21.4625 16.2215 19.9534 17.2737 18.652 18.6305C17.3783 19.9596 16.3815 21.538 15.6615 23.3655C14.9693 25.1653 14.6232 27.1451 14.6232 29.3049C14.6232 31.4647 14.9693 33.4584 15.6615 35.2859C16.3815 37.0857 17.3783 38.664 18.652 40.0208C19.9534 41.3499 21.4625 42.3883 23.1793 43.1359ZM28.8695 39.8962C30.2817 39.8962 31.5693 39.6332 32.7322 39.1071C33.9229 38.581 34.9474 37.8472 35.8058 36.9057C36.6642 35.9366 37.3287 34.8152 37.7994 33.5414C38.2978 32.24 38.5471 30.8278 38.5471 29.3049C38.5471 27.782 38.2978 26.3836 37.7994 25.1099C37.3287 23.8085 36.6642 22.6871 35.8058 21.7456C34.9474 20.7765 33.9229 20.0289 32.7322 19.5028C31.5693 18.9767 30.2817 18.7136 28.8695 18.7136C27.4573 18.7136 26.1559 18.9767 24.9653 19.5028C23.8023 20.0289 22.7778 20.7626 21.8917 21.7041C21.0333 22.6455 20.3688 23.767 19.8981 25.0684C19.4273 26.3421 19.192 27.7543 19.192 29.3049C19.192 31.3539 19.6073 33.1815 20.438 34.7875C21.2687 36.3658 22.404 37.6118 23.8438 38.5256C25.3114 39.4393 26.9866 39.8962 28.8695 39.8962ZM75.5329 43.842H80.0186V31.9216C80.0186 29.2357 79.9494 26.9236 79.8109 24.9853C79.7603 24.0865 79.6894 23.1993 79.5982 22.3237L87.9517 35.4936H90.693L99.2167 22.3171C99.1112 23.2725 99.0251 24.2311 98.9583 25.193C98.8476 27.1867 98.7922 29.4295 98.7922 31.9216V43.842H103.278V14.7678H99.1244L89.4623 30.2722L79.9355 14.7678H75.5329V43.842Z" fill="white"/>
<path fill-rule="evenodd" clip-rule="evenodd" d="M137.904 14.7678V43.842H142.389V32.9184H149.029L155.182 43.842L160.623 43.8835L153.871 32.2214C154.22 32.0752 154.56 31.9061 154.891 31.7139C156.276 30.8832 157.383 29.7895 158.214 28.4327C159.045 27.0759 159.46 25.6083 159.46 24.03C159.46 22.2856 159.045 20.7211 158.214 19.3366C157.383 17.9245 156.262 16.8169 154.85 16.0139C153.465 15.1832 151.942 14.7678 150.281 14.7678H137.904ZM150.281 32.9184C151.566 32.9184 152.763 32.6861 153.871 32.2214L152.399 29.6787L147.789 30.7171L149.029 32.9184H150.281ZM150.696 28.5988H142.389V19.0874H149.533C150.558 19.0874 151.472 19.2951 152.275 19.7104C153.105 20.1258 153.742 20.7073 154.185 21.4549C154.656 22.1748 154.891 23.0194 154.891 23.9885C154.891 24.8469 154.711 25.636 154.351 26.356C153.991 27.0482 153.493 27.602 152.856 28.0173C152.219 28.405 151.499 28.5988 150.696 28.5988Z" fill="white"/>
<path d="M152.399 29.6787L147.789 30.7171L149.029 32.9184H150.281C151.566 32.9184 152.763 32.6861 153.871 32.2214L152.399 29.6787Z" fill="white"/>
<path fill-rule="evenodd" clip-rule="evenodd" d="M175.733 41.3629V43.842H179.595V28.7234C179.595 27.2005 179.263 25.9129 178.598 24.8607C177.934 23.7808 176.992 22.964 175.774 22.4102C174.556 21.8564 173.116 21.5795 171.455 21.5795C169.71 21.5795 168.076 21.9256 166.553 22.6179C165.058 23.3101 163.66 24.3623 162.358 25.7745L165.141 28.5573C165.944 27.5328 166.83 26.7713 167.799 26.2729C168.796 25.7745 169.904 25.5253 171.122 25.5253C172.451 25.5253 173.545 25.9129 174.403 26.6882C175.29 27.4359 175.733 28.4188 175.733 29.6372V30.5925H171.621C170.015 30.5925 168.589 30.7448 167.343 31.0494C166.124 31.3539 165.1 31.797 164.269 32.3785C163.466 32.9599 162.857 33.6937 162.442 34.5798C162.026 35.4659 161.818 36.4904 161.818 37.6534C161.818 38.9825 162.137 40.1454 162.774 41.1423C163.438 42.1114 164.324 42.8729 165.432 43.4266C166.54 43.9804 167.799 44.2573 169.212 44.2573C170.292 44.2573 171.33 44.0497 172.327 43.6343C173.324 43.219 174.251 42.6513 175.11 41.9314C175.326 41.7498 175.534 41.5604 175.733 41.3629ZM175.733 37.4723V33.9983H177.311L177.685 30.5925H175.733V33.9983H171.081C170.25 33.9983 169.502 34.0814 168.838 34.2475C168.201 34.386 167.647 34.6213 167.176 34.9536C166.733 35.2582 166.401 35.632 166.18 36.075C165.958 36.4904 165.847 36.9888 165.847 37.5703C165.847 38.1795 166 38.7194 166.304 39.1901C166.609 39.6332 167.024 39.9793 167.55 40.2285C168.076 40.4777 168.686 40.6023 169.378 40.6023C170.375 40.6023 171.316 40.4362 172.202 40.1039C173.116 39.7439 173.919 39.2594 174.611 38.6502C175.045 38.2827 175.419 37.8901 175.733 37.4723Z" fill="white"/>
<path d="M177.311 33.9983L177.685 30.5925H175.733V33.9983H177.311Z" fill="white"/>
<path fill-rule="evenodd" clip-rule="evenodd" d="M186.664 42.8036C188.242 43.7728 190.028 44.2573 192.022 44.2573C193.018 44.2573 193.988 44.0912 194.929 43.7589C195.898 43.4267 196.743 42.9836 197.463 42.4298C198.12 41.9425 198.66 41.423 199.082 40.8714V43.842H203.36V13.1064H199.082V24.7431C198.714 24.3105 198.271 23.9066 197.753 23.5316C196.95 22.9224 196.037 22.4517 195.012 22.1194C194.015 21.7595 192.977 21.5795 191.897 21.5795C189.931 21.5795 188.173 22.0779 186.622 23.0747C185.071 24.0439 183.839 25.3868 182.925 27.1036C182.039 28.7927 181.596 30.7309 181.596 32.9184C181.596 35.1059 182.053 37.058 182.967 38.7748C183.881 40.4639 185.113 41.8068 186.664 42.8036ZM199.082 27.6851V24.7431C199.285 24.9812 199.465 25.2281 199.622 25.4837C200.093 26.176 200.328 26.8821 200.328 27.602L199.082 27.6851ZM196.05 39.5639C195.054 40.2285 193.904 40.5608 192.603 40.5608C191.302 40.5608 190.152 40.2285 189.156 39.5639C188.159 38.8994 187.37 37.9995 186.788 36.8642C186.234 35.7012 185.958 34.386 185.958 32.9184C185.958 31.4509 186.234 30.1494 186.788 29.0142C187.37 27.8512 188.159 26.9374 189.156 26.2729C190.152 25.6083 191.302 25.2761 192.603 25.2761C193.904 25.2761 195.054 25.6083 196.05 26.2729C197.047 26.9374 197.823 27.8512 198.376 29.0142C198.958 30.1494 199.249 31.4509 199.249 32.9184C199.249 34.386 198.958 35.7012 198.376 36.8642C197.823 37.9995 197.047 38.8994 196.05 39.5639Z" fill="white"/>
<path d="M200.328 27.602C200.328 26.8821 200.093 26.176 199.622 25.4837C199.465 25.2281 199.285 24.9812 199.082 24.7431V27.6851L200.328 27.602Z" fill="white"/>
<path fill-rule="evenodd" clip-rule="evenodd" d="M250.777 14.7678V43.842H255.263V32.9184H261.902L268.055 43.842L273.496 43.8835L266.745 32.2214C267.093 32.0752 267.433 31.9061 267.765 31.7139C269.149 30.8832 270.257 29.7895 271.087 28.4327C271.918 27.0759 272.333 25.6083 272.333 24.03C272.333 22.2856 271.918 20.7211 271.087 19.3366C270.257 17.9245 269.135 16.8169 267.723 16.0139C266.339 15.1832 264.816 14.7678 263.154 14.7678H250.777ZM263.154 32.9184C264.439 32.9184 265.636 32.6861 266.745 32.2214L265.272 29.6787L260.662 30.7171L261.902 32.9184H263.154ZM263.57 28.5988H255.263V19.0874H262.407C263.431 19.0874 264.345 19.2951 265.148 19.7104C265.979 20.1258 266.615 20.7073 267.058 21.4549C267.529 22.1748 267.765 23.0194 267.765 23.9885C267.765 24.8469 267.585 25.636 267.225 26.356C266.865 27.0482 266.366 27.602 265.729 28.0173C265.092 28.405 264.373 28.5988 263.57 28.5988Z" fill="white"/>
<path d="M265.272 29.6787L260.662 30.7171L261.902 32.9184H263.154C264.439 32.9184 265.636 32.6861 266.745 32.2214L265.272 29.6787Z" fill="white"/>
<path fill-rule="evenodd" clip-rule="evenodd" d="M279.884 42.8452C281.628 43.7866 283.622 44.2573 285.864 44.2573C286.889 44.2573 287.927 44.1189 288.98 43.842C290.059 43.5374 291.07 43.1359 292.012 42.6375C292.981 42.1391 293.798 41.5576 294.462 40.893L292.302 37.861C291.222 38.8025 290.212 39.4532 289.27 39.8131C288.357 40.1731 287.36 40.3531 286.28 40.3531C284.757 40.3531 283.414 40.0485 282.251 39.4393C281.088 38.8302 280.188 37.9718 279.551 36.8642C279.07 36.0059 278.77 35.0367 278.653 33.9568H295.334L295.376 32.1293C295.404 30.6063 295.168 29.208 294.67 27.9343C294.199 26.6329 293.507 25.5114 292.593 24.57C291.707 23.6285 290.655 22.8947 289.436 22.3686C288.218 21.8149 286.903 21.538 285.491 21.538C283.885 21.538 282.389 21.8287 281.005 22.4102C279.648 22.964 278.471 23.767 277.475 24.8192C276.505 25.8437 275.744 27.062 275.19 28.4742C274.636 29.8864 274.359 31.4509 274.359 33.1676C274.359 35.3274 274.844 37.238 275.813 38.8994C276.81 40.5608 278.167 41.876 279.884 42.8452ZM277.516 33.9568H278.653C278.649 33.9208 278.645 33.8847 278.642 33.8485C278.611 33.5339 278.596 33.21 278.596 32.8769C278.596 32.0281 278.669 31.2528 278.816 30.5509H291.015V30.2602C290.932 29.3464 290.627 28.5296 290.101 27.8097C289.575 27.0897 288.91 26.5221 288.107 26.1068C287.304 25.6914 286.432 25.4837 285.491 25.4837C283.995 25.4837 282.736 25.7745 281.711 26.356C280.687 26.9098 279.911 27.7404 279.385 28.848C279.137 29.3572 278.948 29.9248 278.816 30.5509H276.561L277.516 33.9568Z" fill="white"/>
<path d="M276.561 30.5509L277.516 33.9568H278.653L278.642 33.8485C278.611 33.5339 278.596 33.21 278.596 32.8769C278.596 32.0281 278.669 31.2528 278.816 30.5509H276.561Z" fill="white"/>
<path fill-rule="evenodd" clip-rule="evenodd" d="M297.948 22.0364V52.9796H302.268V40.9932C302.408 41.1548 302.56 41.3152 302.725 41.4745C303.556 42.2775 304.566 42.9421 305.757 43.4682C306.948 43.9666 308.18 44.2158 309.453 44.2158C311.364 44.2158 313.081 43.7312 314.604 42.7621C316.127 41.7653 317.317 40.4223 318.176 38.7332C319.062 37.0165 319.505 35.0782 319.505 32.9184C319.505 30.7309 319.062 28.7927 318.176 27.1036C317.29 25.4145 316.085 24.0854 314.562 23.1163C313.039 22.1471 311.295 21.6626 309.329 21.6626C308.138 21.6626 306.975 21.9118 305.84 22.4102C304.732 22.8809 303.791 23.5039 303.016 24.2792C302.723 24.5614 302.474 24.8494 302.268 25.1434V22.0364H297.948ZM302.268 27.0205V25.1434C302.235 25.1902 302.204 25.2372 302.173 25.2843C301.887 25.7253 301.697 26.1794 301.603 26.6467L302.268 27.0205ZM312.153 39.3147C311.156 39.9516 310.021 40.27 308.747 40.27C307.446 40.27 306.297 39.9516 305.3 39.3147C304.303 38.6779 303.514 37.8056 302.933 36.6981C302.351 35.5905 302.06 34.3306 302.06 32.9184C302.06 31.5062 302.351 30.2464 302.933 29.1388C303.514 28.0312 304.303 27.1728 305.3 26.5636C306.297 25.9268 307.446 25.6083 308.747 25.6083C310.049 25.6083 311.198 25.9268 312.195 26.5636C313.192 27.2005 313.967 28.0727 314.521 29.1803C315.102 30.2602 315.393 31.5062 315.393 32.9184C315.393 34.3306 315.102 35.5905 314.521 36.6981C313.939 37.8056 313.15 38.6779 312.153 39.3147Z" fill="white"/>
<path d="M301.603 26.6467L302.268 27.0205V25.1434C302.235 25.1902 302.204 25.2372 302.173 25.2843C301.887 25.7253 301.697 26.1794 301.603 26.6467Z" fill="white"/>
<path fill-rule="evenodd" clip-rule="evenodd" d="M334.991 41.3629V43.842H338.854V28.7234C338.854 27.2005 338.522 25.9129 337.857 24.8607C337.193 23.7808 336.251 22.964 335.033 22.4102C333.815 21.8564 332.375 21.5795 330.713 21.5795C328.969 21.5795 327.335 21.9256 325.812 22.6179C324.317 23.3101 322.919 24.3623 321.617 25.7745L324.4 28.5573C325.203 27.5328 326.089 26.7713 327.058 26.2729C328.055 25.7745 329.163 25.5253 330.381 25.5253C331.71 25.5253 332.804 25.9129 333.662 26.6882C334.548 27.4359 334.991 28.4188 334.991 29.6372V30.5925H330.879C329.273 30.5925 327.847 30.7448 326.601 31.0494C325.383 31.3539 324.359 31.797 323.528 32.3785C322.725 32.9599 322.116 33.6937 321.7 34.5798C321.285 35.4659 321.077 36.4904 321.077 37.6534C321.077 38.9825 321.396 40.1454 322.033 41.1423C322.697 42.1114 323.583 42.8729 324.691 43.4266C325.798 43.9804 327.058 44.2573 328.47 44.2573C329.55 44.2573 330.589 44.0497 331.586 43.6343C332.582 43.219 333.51 42.6513 334.368 41.9314C334.585 41.7498 334.793 41.5604 334.991 41.3629ZM334.991 37.4722V33.9983H336.57L336.943 30.5925H334.991V33.9983H330.339C329.509 33.9983 328.761 34.0814 328.097 34.2475C327.46 34.386 326.906 34.6213 326.435 34.9536C325.992 35.2582 325.66 35.632 325.438 36.075C325.217 36.4904 325.106 36.9888 325.106 37.5703C325.106 38.1795 325.258 38.7194 325.563 39.1901C325.868 39.6332 326.283 39.9793 326.809 40.2285C327.335 40.4777 327.944 40.6023 328.637 40.6023C329.633 40.6023 330.575 40.4362 331.461 40.1039C332.375 39.7439 333.178 39.2594 333.87 38.6502C334.304 38.2827 334.678 37.8901 334.991 37.4722Z" fill="white"/>
<path d="M336.57 33.9983L336.943 30.5925H334.991V33.9983H336.57Z" fill="white"/>
<path fill-rule="evenodd" clip-rule="evenodd" d="M351.667 22.0364V43.842H355.987V31.797C355.987 30.994 356.139 30.2602 356.444 29.5957C356.749 28.9034 357.15 28.3081 357.648 27.8097C358.175 27.2836 358.77 26.8821 359.434 26.6052C360.127 26.3006 360.847 26.1483 361.594 26.1483C361.982 26.1483 362.369 26.2037 362.757 26.3144C363.172 26.3975 363.546 26.5083 363.879 26.6467L365 21.9948C364.751 21.8841 364.405 21.7872 363.962 21.7041C363.546 21.621 363.103 21.5795 362.633 21.5795C361.608 21.5795 360.611 21.8287 359.642 22.3271C358.701 22.8255 357.856 23.5039 357.108 24.3623C356.651 24.9081 356.277 25.4931 355.987 26.1173V22.0364H351.667ZM355.987 28.8896V26.1173C355.978 26.1373 355.969 26.1574 355.959 26.1775C355.806 26.5162 355.676 26.8665 355.572 27.2282L355.987 28.8896Z" fill="white"/>
<path d="M355.572 27.2282L355.987 28.8896V26.1173L355.959 26.1775C355.806 26.5162 355.676 26.8665 355.572 27.2282Z" fill="white"/>
</svg>
