<svg xmlns="http://www.w3.org/2000/svg" width="40" height="50" viewBox="0 0 40 50" fill="none">
  <path d="M20 0C11.7157 0 5 6.71573 5 15C5 23.2843 20 45 20 45C20 45 35 23.2843 35 15C35 6.71573 28.2843 0 20 0Z" fill="#004B8D"/>
  <circle cx="20" cy="15" r="11" fill="white"/>
  <path d="M27 9H13V21H27V9Z" fill="#004B8D"/>
  <path d="M15 11H17V13H15V11Z" fill="white"/>
  <path d="M19 11H21V13H19V11Z" fill="white"/>
  <path d="M23 11H25V13H23V11Z" fill="white"/>
  <path d="M15 15H17V17H15V15Z" fill="white"/>
  <path d="M19 15H21V17H19V15Z" fill="white"/>
  <path d="M23 15H25V17H23V15Z" fill="white"/>
  <path d="M19 17H21V21H19V17Z" fill="white"/>
  <path d="M16 7L24 7L20 3L16 7Z" fill="#004B8D"/>
</svg>