<svg xmlns="http://www.w3.org/2000/svg" width="40" height="50" viewBox="0 0 40 50" fill="none">
  <path d="M20 0C11.7157 0 5 6.71573 5 15C5 23.2843 20 45 20 45C20 45 35 23.2843 35 15C35 6.71573 28.2843 0 20 0Z" fill="#ED1C24"/>
  <circle cx="20" cy="15" r="11" fill="white"/>
  <path d="M13 13L20 8L27 13V21H13V13Z" fill="#ED1C24"/>
  <path d="M17 14H23V21H17V14Z" fill="white"/>
  <path d="M21.5 11C21.5 12.1046 20.6046 13 19.5 13C18.3954 13 17.5 12.1046 17.5 11C17.5 9.89543 18.3954 9 19.5 9C20.6046 9 21.5 9.89543 21.5 11Z" fill="white"/>
  <rect x="20" y="15" width="1" height="6" fill="#ED1C24"/>
  <rect x="18" y="17" width="5" height="1" fill="#ED1C24"/>
</svg>