<svg xmlns="http://www.w3.org/2000/svg" width="40" height="50" viewBox="0 0 40 50" fill="none">
  <path d="M20 0C11.7157 0 5 6.71573 5 15C5 23.2843 20 45 20 45C20 45 35 23.2843 35 15C35 6.71573 28.2843 0 20 0Z" fill="#F7941D"/>
  <circle cx="20" cy="15" r="11" fill="white"/>
  <path d="M27 10H13V21H27V10Z" fill="#F7941D"/>
  <path d="M15 12H18V14H15V12Z" fill="white"/>
  <path d="M22 12H25V14H22V12Z" fill="white"/>
  <path d="M15 16H18V18H15V16Z" fill="white"/>
  <path d="M22 16H25V18H22V16Z" fill="white"/>
  <rect x="19" y="10" width="2" height="11" fill="white"/>
</svg>