<svg xmlns="http://www.w3.org/2000/svg" width="40" height="50" viewBox="0 0 40 50" fill="none">
  <path d="M20 0C11.7157 0 5 6.71573 5 15C5 23.2843 20 45 20 45C20 45 35 23.2843 35 15C35 6.71573 28.2843 0 20 0Z" fill="#662D91"/>
  <circle cx="20" cy="15" r="11" fill="white"/>
  <path d="M13 8H20V21H13V8Z" fill="#F7941D"/>
  <path d="M20 8H27V21H20V8Z" fill="#00A651"/>
  <rect x="15" y="10" width="3" height="2" fill="white"/>
  <rect x="15" y="14" width="3" height="2" fill="white"/>
  <rect x="15" y="18" width="3" height="2" fill="white"/>
  <rect x="22" y="10" width="3" height="2" fill="white"/>
  <rect x="22" y="14" width="3" height="2" fill="white"/>
  <rect x="22" y="18" width="3" height="2" fill="white"/>
</svg>