<svg width="512" height="512" viewBox="0 0 512 512" fill="none" xmlns="http://www.w3.org/2000/svg">
<path d="M512 256C512 397.385 397.385 512 256 512C114.615 512 0 397.385 0 256C0 114.615 114.615 0 256 0C397.385 0 512 114.615 512 256Z" fill="#BCCFEE"/>
<path d="M481.433 256C481.433 131.497 380.503 30.5672 256 30.5672C131.497 30.5672 30.5672 131.497 30.5672 256C30.5672 380.503 131.497 481.433 256 481.433V512C114.615 512 0 397.385 0 256C0 114.615 114.615 0 256 0C397.385 0 512 114.615 512 256C512 397.385 397.385 512 256 512V481.433C380.503 481.433 481.433 380.503 481.433 256Z" fill="#8DB6F8"/>
<path d="M160.478 252.179C160.478 201.534 201.534 160.478 252.179 160.478H351.522V351.522H160.478V252.179Z" fill="#3B82F6"/>
<path d="M255.984 307.047C249.199 307.047 242.917 305.809 237.14 303.333C231.454 300.857 226.457 297.419 222.147 293.017C217.928 288.524 214.627 283.297 212.243 277.336C209.95 271.284 208.804 264.681 208.804 257.528C208.804 250.376 209.95 243.819 212.243 237.858C214.627 231.806 217.928 226.579 222.147 222.177C226.457 217.684 231.454 214.199 237.14 211.723C242.917 209.248 249.199 208.01 255.984 208.01C262.77 208.01 269.006 209.248 274.692 211.723C280.469 214.199 285.466 217.684 289.685 222.177C293.995 226.671 297.296 231.944 299.588 237.996C301.973 243.957 303.165 250.467 303.165 257.528C303.165 264.589 301.973 271.146 299.588 277.198C297.296 283.159 293.995 288.386 289.685 292.879C285.466 297.373 280.469 300.857 274.692 303.333C269.006 305.809 262.77 307.047 255.984 307.047ZM255.984 292.604C260.661 292.604 264.925 291.733 268.777 289.991C272.72 288.248 276.113 285.818 278.956 282.7C281.798 279.491 283.999 275.777 285.558 271.559C287.209 267.249 288.034 262.572 288.034 257.528C288.034 252.485 287.209 247.854 285.558 243.636C283.999 239.326 281.798 235.612 278.956 232.494C276.113 229.284 272.72 226.808 268.777 225.066C264.925 223.324 260.661 222.453 255.984 222.453C251.308 222.453 246.998 223.324 243.055 225.066C239.203 226.808 235.81 229.238 232.876 232.356C230.033 235.474 227.832 239.188 226.273 243.498C224.714 247.716 223.935 252.393 223.935 257.528C223.935 264.314 225.31 270.367 228.061 275.685C230.812 280.912 234.572 285.039 239.341 288.065C244.201 291.091 249.749 292.604 255.984 292.604Z" fill="white"/>
</svg>
